<svg xmlns="http://www.w3.org/2000/svg" version="1.1" viewBox="22.528 348.16 960.512 311.296" style="max-height: 500px" width="960.512" height="311.296">
<path transform="translate(333.0625,374.9375)" fill="#264FDA" d="M0 0 C1.4540625 0.0309375 1.4540625 0.0309375 2.9375 0.0625 C2.9375 0.7225 2.9375 1.3825 2.9375 2.0625 C3.5975 2.0625 4.2575 2.0625 4.9375 2.0625 C5.7982467 7.33457352 6.07367573 12.53663476 6.125 17.875 C6.13917969 19.16019531 6.15335937 20.44539063 6.16796875 21.76953125 C5.9375 25.0625 5.9375 25.0625 3.9375 28.0625 C1.0981841 28.58860183 -1.57121406 28.92793401 -4.4375 29.16015625 C-5.27659912 29.23995224 -6.11569824 29.31974823 -6.98022461 29.40196228 C-9.67329408 29.65605282 -12.36757498 29.89148472 -15.0625 30.125 C-36.86588373 32.08789756 -51.89203226 36.23132316 -70.703125 47.65234375 C-72.7586665 48.88090415 -74.83517541 50.04200263 -76.9375 51.1875 C-81.85473838 54.11509358 -81.85473838 54.11509358 -84.66894531 58.8996582 C-85.09501538 61.2411934 -85.09549649 63.29165987 -84.984375 65.66796875 C-84.46167892 81.58578764 -86.80591146 94.75445616 -94.0625 109.0625 C-95.10444835 111.12485771 -96.14609716 113.18736677 -97.1875 115.25 C-97.68507812 116.21292969 -98.18265625 117.17585938 -98.6953125 118.16796875 C-101.23639409 123.54780148 -102.74795869 128.08921709 -102.0625 134.0625 C-101.3269465 135.62130762 -100.55058988 137.16107411 -99.75 138.6875 C-93.02795686 152.97184167 -93.78463578 169.60728755 -93.75 185.0625 C-93.74632416 185.85573669 -93.74264832 186.64897339 -93.73886108 187.46624756 C-93.67435503 214.15795688 -93.67435503 214.15795688 -101.0625 224.0625 C-102.12788332 225.72732504 -103.1903569 227.3940155 -104.25 229.0625 C-105.73046875 231.375 -105.73046875 231.375 -107.0625 233.0625 C-107.7225 233.0625 -108.3825 233.0625 -109.0625 233.0625 C-109.31 233.64 -109.5575 234.2175 -109.8125 234.8125 C-111.24549988 237.39189979 -112.84674676 239.12371592 -115.0625 241.0625 C-115.7225 241.0625 -116.3825 241.0625 -117.0625 241.0625 C-117.44728516 241.95388672 -117.44728516 241.95388672 -117.83984375 242.86328125 C-123.08120464 252.29103263 -138.41555033 258.47617104 -148.14453125 262.26171875 C-156.05323211 264.43211189 -163.95435658 264.23906523 -172.10546875 264.265625 C-172.77912287 264.26845238 -173.45277699 264.27127975 -174.14684486 264.27419281 C-177.71386726 264.28912286 -181.28084988 264.29839063 -184.84790039 264.30273438 C-188.49778768 264.30820192 -192.14729873 264.33221107 -195.7970686 264.36070633 C-198.6344147 264.37949962 -201.47167328 264.38454713 -204.30907631 264.38607025 C-206.29847693 264.39049815 -208.28783037 264.40906059 -210.27714539 264.42803955 C-220.20246821 264.40397532 -230.55352661 263.7403378 -238.75 257.5625 C-239.55824219 256.9746875 -240.36648437 256.386875 -241.19921875 255.78125 C-243.0625 254.0625 -243.0625 254.0625 -244.0625 251.0625 C-244.7225 251.0625 -245.3825 251.0625 -246.0625 251.0625 C-256.15349543 239.08373331 -257.19187964 222.92924285 -256.0625 208.0625 C-254.68149519 200.93565652 -252.02168383 194.39980399 -248.69921875 187.96484375 C-247.88449118 185.53065769 -248.2287206 184.47617055 -249.0625 182.0625 C-250.02394146 180.8156775 -251.03384407 179.60534959 -252.07846069 178.42733765 C-255.68828853 173.74575906 -255.90731447 170.00032 -255.80712891 164.22509766 C-255.81443024 163.27438889 -255.82173157 162.32368011 -255.82925415 161.34416199 C-255.8453833 158.22088747 -255.81831527 155.09971599 -255.7890625 151.9765625 C-255.7880241 149.79234824 -255.78906414 147.6081321 -255.79208374 145.42391968 C-255.79190465 140.85264061 -255.77112388 136.28206957 -255.73486328 131.7109375 C-255.68954296 125.87142479 -255.68839448 120.03294797 -255.70189857 114.19330788 C-255.70860498 109.6840404 -255.69526698 105.17500606 -255.67564011 100.66578293 C-255.66797792 98.51375933 -255.66562222 96.36170971 -255.6688118 94.20967484 C-255.66955947 91.19218463 -255.64413871 88.17598611 -255.61181641 85.15869141 C-255.61677124 84.28148941 -255.62172607 83.40428741 -255.62683105 82.50050354 C-255.47035085 73.27723541 -252.40977233 65.71939537 -246.0625 59.0625 C-244.8559375 57.7940625 -244.8559375 57.7940625 -243.625 56.5 C-241.0625 54.0625 -241.0625 54.0625 -238 51.5625 C-235.25004889 49.22211608 -233.2642103 46.90341652 -231.0625 44.0625 C-228.36733379 41.22164913 -225.56694254 38.62761591 -222.5625 36.125 C-219.28931225 33.36191943 -216.75367688 30.39106088 -214.0625 27.0625 C-190.51317273 2.95907091 -190.51317273 2.95907091 -175.01313782 2.76922607 C-174.27476181 2.77013245 -173.5363858 2.77103882 -172.77563477 2.77197266 C-171.97791656 2.76525543 -171.18019836 2.75853821 -170.35830688 2.75161743 C-167.74010875 2.73273086 -165.12216812 2.72871834 -162.50390625 2.7265625 C-160.67219439 2.72012928 -158.84048355 2.71340053 -157.0087738 2.70639038 C-153.17664203 2.69444186 -149.34460025 2.69070718 -145.51245117 2.69189453 C-140.61554001 2.69209786 -135.71920827 2.66477071 -130.82243443 2.63035011 C-127.04161454 2.60805616 -123.26093373 2.60405772 -119.48005486 2.60511398 C-117.67523129 2.60276275 -115.87040361 2.59396628 -114.06564522 2.57844925 C-111.53627585 2.55873331 -109.00815151 2.56464805 -106.47875977 2.57666016 C-105.74240799 2.56542114 -105.00605621 2.55418213 -104.24739075 2.54260254 C-98.86685846 2.60715281 -94.50878014 3.96010857 -90.0625 7.0625 C-87.95422945 10.22490582 -87.72432535 11.56907469 -87.4375 15.25 C-87.32535156 16.60158203 -87.32535156 16.60158203 -87.2109375 17.98046875 C-87.16195312 18.66753906 -87.11296875 19.35460937 -87.0625 20.0625 C-82.91038314 18.77264121 -79.16484102 17.19696437 -75.3125 15.1875 C-61.80140698 8.34055003 -47.72849304 3.25354782 -32.515625 2.5625 C-30.85025871 2.4792007 -29.18489418 2.39586634 -27.51953125 2.3125 C-24.90354673 2.18611917 -22.28749384 2.0613165 -19.67138672 1.9375 C-17.14009076 1.81639894 -14.60912082 1.6896965 -12.078125 1.5625 C-10.89540009 1.50932617 -10.89540009 1.50932617 -9.68878174 1.45507812 C-6.07064757 1.27162173 -3.38592884 0.06910059 0 0 Z M-182.91796875 34.6484375 C-183.35753906 35.23882812 -183.79710937 35.82921875 -184.25 36.4375 C-184.73984375 37.06527344 -185.2296875 37.69304687 -185.734375 38.33984375 C-186.17265625 38.90832031 -186.6109375 39.47679687 -187.0625 40.0625 C-188.39583333 41.39583333 -189.72916667 42.72916667 -191.0625 44.0625 C-192.06415925 45.24860075 -193.06390857 46.43631526 -194.0625 47.625 C-199.66788726 54.09182124 -206.14753533 60.05427102 -212.9296875 65.265625 C-213.63351563 65.85859375 -214.33734375 66.4515625 -215.0625 67.0625 C-215.0625 67.7225 -215.0625 68.3825 -215.0625 69.0625 C-215.95388672 69.44921875 -215.95388672 69.44921875 -216.86328125 69.84375 C-219.240007 71.16086977 -220.53035573 72.47593934 -222.25 74.5625 C-222.75917969 75.1709375 -223.26835937 75.779375 -223.79296875 76.40625 C-226.35423797 79.74772122 -226.16689527 82.09027334 -226.125 86.25390625 C-226.11670166 87.57213379 -226.10840332 88.89036133 -226.09985352 90.24853516 C-226.09365997 90.96003723 -226.08746643 91.67153931 -226.08108521 92.40460205 C-225.94399247 108.78324412 -226.27038415 125.13224917 -226.79492188 141.50219727 C-226.84379017 143.1707345 -226.89262012 144.83927286 -226.94140625 146.5078125 C-226.96844131 147.25551407 -226.99547638 148.00321564 -227.02333069 148.77357483 C-227.16096225 153.64758063 -226.76941249 158.23618163 -226.0625 163.0625 C-225.0725 162.7325 -224.0825 162.4025 -223.0625 162.0625 C-221.7164432 159.19345803 -221.7164432 159.19345803 -220.625 155.6875 C-220.4081958 155.05263672 -220.1913916 154.41777344 -219.96801758 153.76367188 C-218.99447575 150.91148456 -218.05780354 148.04793703 -217.1328125 145.1796875 C-214.43922068 137.19426041 -210.44775179 130.21831329 -206.0625 123.0625 C-205.39541016 121.97388672 -205.39541016 121.97388672 -204.71484375 120.86328125 C-201.09522997 115.40318588 -196.11787921 110.80843098 -190.4375 107.5625 C-187.50913712 105.71300766 -185.66134357 103.45458829 -183.4921875 100.78125 C-182.0625 99.0625 -182.0625 99.0625 -180.4453125 97.53125 C-178.80753713 95.99772396 -178.80753713 95.99772396 -178.0625 93.0625 C-179.17625 92.36125 -180.29 91.66 -181.4375 90.9375 C-184.00213876 89.08410721 -185.0368337 88.11062432 -186.5625 85.25 C-187.19387073 81.22501159 -186.75392024 78.07273736 -186.0625 74.0625 C-178.27444273 70.7894703 -169.98867714 68.53153501 -161.6875 67 C-157.9107813 66.30266468 -154.54371304 65.19282663 -150.9765625 63.79296875 C-143.69358431 61.01354646 -136.81317992 60.54976271 -129.0625 61.0625 C-128.4025 61.3925 -127.7425 61.7225 -127.0625 62.0625 C-126.36318316 81.77287472 -130.44506209 102.18760226 -139.0625 120.0625 C-143.3933447 124.07645363 -145.86181704 125.1927405 -151.6875 125.125 C-153.19183594 125.11146484 -153.19183594 125.11146484 -154.7265625 125.09765625 C-155.49742187 125.08605469 -156.26828125 125.07445312 -157.0625 125.0625 C-158.0525 122.7525 -159.0425 120.4425 -160.0625 118.0625 C-172.19824461 122.05654253 -180.2158139 134.73802813 -186.375 145.1875 C-186.72522217 145.77370117 -187.07544434 146.35990234 -187.4362793 146.96386719 C-189.54478785 150.65336698 -190.61970252 153.83988059 -191.0625 158.0625 C-190.04434204 158.10008423 -190.04434204 158.10008423 -189.00561523 158.13842773 C-186.98123813 158.21398849 -184.95690909 158.29084265 -182.93261719 158.36865234 C-180.63780256 158.45646246 -178.34287658 158.54140767 -176.04785156 158.62353516 C-171.09588559 158.8110777 -166.16751978 159.00391321 -161.23828125 159.52734375 C-159.29501953 159.73037109 -159.29501953 159.73037109 -157.3125 159.9375 C-156.20390625 160.07929687 -155.0953125 160.22109375 -153.953125 160.3671875 C-149.87748915 159.93759345 -148.62290909 158.16033284 -146.0625 155.0625 C-141.16144288 148.62216615 -138.37072808 141.18443172 -135.59814453 133.65942383 C-133.96054269 129.23188754 -132.11950125 125.03753734 -129.95947266 120.83984375 C-128.85413651 118.64962949 -127.93948789 116.41534784 -127.0625 114.125 C-124.55232142 107.72746316 -121.83469339 101.51585685 -118.625 95.4375 C-113.6172358 85.4219716 -110.03266346 76.24915471 -112.0625 65.0625 C-112.43782789 61.98348921 -112.74793814 58.89823089 -113.0625 55.8125 C-113.15015625 54.99442871 -113.2378125 54.17635742 -113.328125 53.33349609 C-113.99175125 47.07980922 -114.46110932 40.83401698 -114.81640625 34.5546875 C-114.79052645 32.12307412 -114.79052645 32.12307412 -116.0625 31.0625 C-117.83565364 30.95828569 -119.61295937 30.92395958 -121.38916016 30.91723633 C-122.5276944 30.91085648 -123.66622864 30.90447662 -124.83926392 30.89790344 C-126.08082245 30.89679062 -127.32238098 30.8956778 -128.6015625 30.89453125 C-130.50559341 30.88953865 -130.50559341 30.88953865 -132.4480896 30.88444519 C-135.14332564 30.87936866 -137.83846098 30.87660601 -140.53369141 30.87719727 C-143.97341682 30.87729839 -147.41293349 30.86370214 -150.85260963 30.84642506 C-154.14391926 30.8325626 -157.43522766 30.83321403 -160.7265625 30.83203125 C-161.95597565 30.82484573 -163.18538879 30.81766022 -164.45205688 30.81025696 C-174.30463632 30.55106052 -174.30463632 30.55106052 -182.91796875 34.6484375 Z M-123.0625 169.0625 C-124.12397575 170.49152276 -125.13702667 171.95670781 -126.125 173.4375 C-126.67285156 174.24960937 -127.22070312 175.06171875 -127.78515625 175.8984375 C-129.23193676 177.93073778 -129.23193676 177.93073778 -129.0625 180.0625 C-129.64532242 180.33886292 -130.22814484 180.61522583 -130.82862854 180.89996338 C-133.04574664 181.98841949 -133.04574664 181.98841949 -134.85484314 183.33782959 C-141.50428079 187.85783804 -148.15850185 187.67400195 -155.91845894 187.50125885 C-158.23646113 187.45217088 -160.55233992 187.43854305 -162.87083435 187.43426514 C-169.45426404 187.41645963 -176.03638382 187.34033802 -182.61889648 187.23095703 C-186.66265179 187.1662043 -190.70476753 187.14558299 -194.74900627 187.15111542 C-196.28045826 187.14418283 -197.81193758 187.12029866 -199.34283638 187.07855988 C-207.98531367 186.69370002 -207.98531367 186.69370002 -215.74435425 189.95910645 C-223.97677526 198.93157641 -226.41731674 208.68768622 -226.35546875 220.5625 C-225.88905958 226.13453488 -224.0612093 230.0637907 -220.0625 234.0625 C-217.24217369 234.41192514 -217.24217369 234.41192514 -213.89135742 234.41650391 C-212.59207809 234.44217438 -211.29279877 234.46784485 -209.95414734 234.49429321 C-208.52543674 234.51064181 -207.09670876 234.52552662 -205.66796875 234.5390625 C-204.58628638 234.55128908 -204.58628638 234.55128908 -203.48275185 234.56376266 C-199.65526093 234.60553356 -195.82791383 234.63409863 -192.00024414 234.65283203 C-188.07702861 234.67480236 -184.15613275 234.74338731 -180.23372936 234.82317543 C-177.19385614 234.87595544 -174.15451246 234.89225543 -171.11422157 234.89939499 C-169.67065326 234.90903575 -168.22710118 234.93200076 -166.78398705 234.96947098 C-155.96394693 235.23261793 -148.41161236 233.05697185 -140.0625 226.0625 C-140.0625 225.4025 -140.0625 224.7425 -140.0625 224.0625 C-139.505625 223.815 -138.94875 223.5675 -138.375 223.3125 C-133.40341021 220.62515417 -130.09093185 217.11726792 -126.8125 212.5625 C-126.12671875 211.6240625 -125.4409375 210.685625 -124.734375 209.71875 C-121.77630198 205.01900781 -121.92600135 200.67594881 -121.96484375 195.234375 C-121.9662587 194.48536926 -121.96767365 193.73636353 -121.96913147 192.96466064 C-121.97471341 190.58056588 -121.98726255 188.19656622 -122 185.8125 C-122.00501734 184.19270969 -122.00957984 182.57291791 -122.01367188 180.953125 C-122.02467692 176.98954688 -122.04192909 173.02603955 -122.0625 169.0625 C-122.3925 169.0625 -122.7225 169.0625 -123.0625 169.0625 Z"/>
<path transform="translate(695.25390625,434.9453125)" fill="#111317" d="M0 0 C4.16114856 2.43691573 6.63841566 4.61713634 8.74609375 9.0546875 C9.14453125 12.2109375 9.14453125 12.2109375 9.12109375 15.5546875 C9.13269531 17.20984375 9.13269531 17.20984375 9.14453125 18.8984375 C8.70393423 22.38865703 7.83530287 24.25087954 5.74609375 27.0546875 C3.05859375 28.8671875 3.05859375 28.8671875 0.74609375 30.0546875 C1.85984375 30.1784375 2.97359375 30.3021875 4.12109375 30.4296875 C7.74609375 31.0546875 7.74609375 31.0546875 9.74609375 33.0546875 C11.01932104 35.37645492 11.90471791 37.53055998 12.74609375 40.0546875 C21.05902954 41.11659667 29.27073285 41.14746231 37.63195801 41.06872177 C40.10327378 41.04647275 42.57451056 41.03254471 45.04589844 41.02102661 C52.06439878 40.98762 59.08276522 40.94539696 66.10107422 40.88330078 C70.4114041 40.84575019 74.72160514 40.8226679 79.03207397 40.80899429 C80.67161694 40.80093019 82.3111422 40.78730746 83.95059204 40.76806259 C86.23154957 40.74171311 88.51187849 40.73370357 90.79296875 40.72998047 C92.73961426 40.71546341 92.73961426 40.71546341 94.72558594 40.70065308 C95.72235352 40.81748444 96.71912109 40.9343158 97.74609375 41.0546875 C101.3705128 46.49131607 99.77179602 53.82632675 98.74609375 60.0546875 C97.31770402 63.36942398 95.2541192 65.49298835 92.74609375 68.0546875 C91.37803486 69.6317113 90.03599805 71.22888406 88.69458008 72.82861328 C87.73377166 73.973551 86.76749601 75.11392425 85.7956543 76.24951172 C82.62338089 79.95767527 79.65374119 83.75139668 76.8671875 87.76171875 C76.49722656 88.18839844 76.12726563 88.61507812 75.74609375 89.0546875 C75.08609375 89.0546875 74.42609375 89.0546875 73.74609375 89.0546875 C73.42705078 89.83779297 73.42705078 89.83779297 73.1015625 90.63671875 C71.18414476 94.05712676 68.64631803 96.81070648 66.05859375 99.7421875 C61.41271369 105.0288786 57.02253454 110.46413624 52.74609375 116.0546875 C53.99221436 116.0139209 55.23833496 115.9731543 56.5222168 115.93115234 C61.15311152 115.78248826 65.78432793 115.64792391 70.41577148 115.51757812 C72.41881663 115.45924172 74.42175479 115.39710101 76.42456055 115.33105469 C79.30627969 115.23668929 82.18810871 115.15608981 85.0703125 115.078125 C85.9632048 115.04592865 86.85609711 115.0137323 87.77604675 114.9805603 C92.24458259 114.87331566 95.68540267 114.90900222 99.74609375 117.0546875 C99.942414 120.6792668 100.12665353 124.30436017 100.30859375 127.9296875 C100.39270508 129.47849609 100.39270508 129.47849609 100.47851562 131.05859375 C100.52685547 132.04472656 100.57519531 133.03085937 100.625 134.046875 C100.67213135 134.95808105 100.7192627 135.86928711 100.76782227 136.80810547 C100.74609375 139.0546875 100.74609375 139.0546875 99.74609375 141.0546875 C89.0891675 141.07782348 78.4322472 141.09560902 67.77530098 141.10649967 C62.82724243 141.11172574 57.87920102 141.11881841 52.93115234 141.13012695 C48.15902411 141.1409656 43.38691239 141.14696642 38.6147728 141.14956474 C36.7910524 141.15141722 34.96733293 141.15503446 33.14361954 141.16041756 C30.595889 141.16764093 28.04822736 141.16867789 25.50048828 141.16821289 C24.36113327 141.1736058 24.36113327 141.1736058 23.19876099 141.17910767 C17.97419807 141.16873966 17.97419807 141.16873966 15.74609375 140.0546875 C15.66445216 137.3665626 15.60529707 134.6809645 15.55859375 131.9921875 C15.53345703 131.24001953 15.50832031 130.48785156 15.48242188 129.71289062 C15.38144175 121.937421 17.9009422 116.61198119 22.93359375 110.6796875 C23.73152344 109.73351562 24.52945313 108.78734375 25.3515625 107.8125 C28.1093122 104.63636412 30.90101827 101.49366025 33.71484375 98.3671875 C36.75120538 94.91040657 39.62269058 91.32376563 42.51953125 87.75 C45.13304463 84.58627327 47.85357701 81.53765017 50.62890625 78.515625 C53.81574101 74.81137057 56.76881676 70.92816968 59.74609375 67.0546875 C53.74951675 67.02453861 47.75541411 67.04017546 41.7590332 67.09741211 C39.72131481 67.11051485 37.68347741 67.11132007 35.64575195 67.09936523 C32.70796648 67.08429967 29.77345525 67.11411688 26.8359375 67.15234375 C25.93149399 67.13808853 25.02705048 67.12383331 24.09519958 67.10914612 C19.12844671 67.22167077 16.3748025 67.85140087 12.74047852 71.36108398 C8.74934642 75.79721408 7.50067278 79.10775376 7.44311523 85.0925293 C7.42647324 86.31026535 7.40983124 87.5280014 7.39268494 88.78263855 C7.38427078 90.09315689 7.37585663 91.40367523 7.3671875 92.75390625 C7.35100856 94.11344086 7.33382814 95.47296389 7.31568909 96.83247375 C7.27007216 100.40437482 7.23522413 103.97629136 7.20349121 107.54833984 C7.15153865 113.27650758 7.08661106 119.00450605 7.01527596 124.73246193 C6.99239066 126.73611896 6.97644225 128.7398513 6.96055603 130.74357605 C6.94706619 131.95185562 6.93357635 133.16013519 6.91967773 134.4050293 C6.91016586 135.47440231 6.90065399 136.54377533 6.89085388 137.64555359 C6.74609375 140.0546875 6.74609375 140.0546875 5.74609375 141.0546875 C-3.82390625 140.7246875 -13.39390625 140.3946875 -23.25390625 140.0546875 C-22.92390625 107.3846875 -22.59390625 74.7146875 -22.25390625 41.0546875 C-20.93390625 41.0546875 -19.61390625 41.0546875 -18.25390625 41.0546875 C-18.25390625 40.3946875 -18.25390625 39.7346875 -18.25390625 39.0546875 C-19.24390625 39.0546875 -20.23390625 39.0546875 -21.25390625 39.0546875 C-21.74890625 37.5696875 -21.74890625 37.5696875 -22.25390625 36.0546875 C-20.76890625 35.5596875 -20.76890625 35.5596875 -19.25390625 35.0546875 C-17.55508177 32.55708768 -17.55508177 32.55708768 -16.25390625 30.0546875 C-17.03765625 29.5184375 -17.82140625 28.9821875 -18.62890625 28.4296875 C-22.71360346 24.73400907 -23.13936103 21.49795731 -23.56640625 16.1171875 C-23.41707291 10.91043175 -21.65842336 6.78692527 -18.37890625 2.7421875 C-13.07878632 -1.46673127 -6.33083712 -2.65522111 0 0 Z"/>
<path transform="translate(869.53125,479.4765625)" fill="#14161A" d="M0 0 C12.2232812 8.06294754 20.16943308 18.03000961 23.46875 32.5234375 C23.83050492 36.33252489 23.97434388 40.13745404 24.09375 43.9609375 C24.13242187 44.97865234 24.17109375 45.99636719 24.2109375 47.04492188 C24.30455872 49.53758686 24.39028993 52.030257 24.46875 54.5234375 C20.30129024 55.32041095 16.42727952 55.62432291 12.18798828 55.54516602 C10.9671756 55.52506973 9.74636292 55.50497345 8.48855591 55.48426819 C7.18522308 55.45723312 5.88189026 55.43019806 4.5390625 55.40234375 C3.18001137 55.37801333 1.82095142 55.35417128 0.46188354 55.33079529 C-3.09902062 55.26824479 -6.65976672 55.1990975 -10.22052002 55.12854004 C-13.86048237 55.05759274 -17.50055596 54.99293426 -21.140625 54.92773438 C-28.2709541 54.79909688 -35.40113513 54.66348462 -42.53125 54.5234375 C-41.97783128 56.61723012 -41.40019616 58.7046314 -40.8125 60.7890625 C-40.49345703 61.95211914 -40.17441406 63.11517578 -39.84570312 64.31347656 C-37.81151406 69.28106902 -34.34696416 71.45471522 -29.53125 73.5234375 C-23.64868648 75.32307452 -17.89105411 75.24040176 -12.27734375 72.65234375 C-10.20706255 71.3138398 -8.77917136 69.69449921 -7.09375 67.8984375 C-3.54616324 64.74280186 -1.23634407 64.04125666 3.5 64.05859375 C5.65898269 64.1968213 7.81580478 64.3734758 9.96875 64.5859375 C11.07734375 64.66521484 12.1859375 64.74449219 13.328125 64.82617188 C16.04610455 65.02533417 18.75653628 65.25840345 21.46875 65.5234375 C22.38812872 68.47813321 22.58693892 69.23788315 21.3515625 72.22265625 C15.17492462 82.72294065 8.27626994 91.37768605 -3.53125 95.5234375 C-6.47630468 96.2077185 -9.38525679 96.74419582 -12.37890625 97.1640625 C-14.50656622 97.30508749 -14.50656622 97.30508749 -15.53125 98.5234375 C-23.9170467 100.17490731 -31.4295019 99.17745843 -39.53125 96.5234375 C-40.65660156 96.19279297 -40.65660156 96.19279297 -41.8046875 95.85546875 C-49.49704265 93.27112861 -55.10449882 88.44540551 -60.53125 82.5234375 C-60.53125 81.8634375 -60.53125 81.2034375 -60.53125 80.5234375 C-61.52125 80.1934375 -62.51125 79.8634375 -63.53125 79.5234375 C-64.8125 77.37109375 -64.8125 77.37109375 -66.03125 74.5859375 C-66.4334375 73.69003906 -66.835625 72.79414062 -67.25 71.87109375 C-73.07878679 56.64161119 -74.6504677 39.0869539 -68.22436523 23.71875 C-62.26480023 10.95431571 -52.34156283 2.85623741 -39.53125 -2.4765625 C-27.53002442 -6.68726145 -11.08899434 -6.46858003 0 0 Z M-36.46875 22.2109375 C-39.44440928 25.54728276 -40.40894559 29.25320607 -41.53125 33.5234375 C-37.79834739 35.97577038 -34.21018735 35.69690539 -29.921875 35.5 C-29.19506531 35.47497406 -28.46825562 35.44994812 -27.71942139 35.42416382 C-25.40620442 35.34222637 -23.09387519 35.24553795 -20.78125 35.1484375 C-19.20967126 35.09017093 -17.63805646 35.03286824 -16.06640625 34.9765625 C-12.22084689 34.83668726 -8.37601639 34.68358335 -4.53125 34.5234375 C-4.9785348 33.07979895 -5.43468507 31.63890533 -5.89453125 30.19921875 C-6.14759033 29.39653564 -6.40064941 28.59385254 -6.66137695 27.7668457 C-8.83430349 22.16285413 -13.55318755 19.73832038 -18.6640625 17.22265625 C-24.56864906 15.01152446 -31.41491535 19.30767079 -36.46875 22.2109375 Z"/>
<path transform="translate(335.58209228515625,441.8755798339844)" fill="#090B10" d="M0 0 C1.20085236 0.00539291 1.20085236 0.00539291 2.42596436 0.01089478 C3.26491745 0.01074875 4.10387054 0.01060272 4.96824646 0.01045227 C7.75487816 0.01115167 10.54144388 0.01894531 13.32806396 0.02676392 C15.25477563 0.028628 17.18148777 0.03005195 19.10820007 0.03105164 C24.18978169 0.03487758 29.27133491 0.04470851 34.35290527 0.05575562 C39.53407405 0.0659681 44.7152474 0.07054891 49.89642334 0.07559204 C60.07026397 0.08633071 70.24408348 0.10340804 80.41790771 0.12442017 C80.44683628 4.08273826 80.46468199 8.04102933 80.48040771 11.99942017 C80.48878662 13.12734985 80.49716553 14.25527954 80.50579834 15.41738892 C80.509021 16.4937561 80.51224365 17.57012329 80.51556396 18.67910767 C80.52080078 19.67410278 80.5260376 20.6690979 80.53143311 21.69424438 C80.41790771 24.12442017 80.41790771 24.12442017 79.41790771 26.12442017 C60.93790771 26.12442017 42.45790771 26.12442017 23.41790771 26.12442017 C23.74790771 36.02442017 24.07790771 45.92442017 24.41790771 56.12442017 C40.25790771 56.45442017 56.09790771 56.78442017 72.41790771 57.12442017 C72.41790771 64.38442017 72.41790771 71.64442017 72.41790771 79.12442017 C68.72746476 80.96964164 67.67023478 81.37302875 63.83294678 81.35147095 C62.48199921 81.35124435 62.48199921 81.35124435 61.10375977 81.35101318 C60.14008484 81.34069061 59.17640991 81.33036804 58.18353271 81.31973267 C56.69378937 81.31548782 56.69378937 81.31548782 55.1739502 81.31115723 C52.00514627 81.2999716 48.83662606 81.27486979 45.66790771 81.24942017 C43.51817222 81.23938828 41.36843228 81.2302628 39.21868896 81.22207642 C33.95166525 81.20003758 28.68480676 81.16657601 23.41790771 81.12442017 C23.4326564 81.77365952 23.44740509 82.42289886 23.46260071 83.09181213 C23.61452465 89.82318021 23.7593933 96.55467339 23.90008545 103.2862854 C23.95359638 105.80162442 24.00893241 108.31692529 24.06610107 110.83218384 C24.14775907 114.43862678 24.22294412 118.04515412 24.29681396 121.65176392 C24.32384903 122.78403915 24.35088409 123.91631439 24.3787384 125.082901 C24.39883469 126.12390457 24.41893097 127.16490814 24.43963623 128.23745728 C24.45962173 129.15901108 24.47960724 130.08056488 24.50019836 131.03004456 C24.41790771 133.12442017 24.41790771 133.12442017 23.41790771 134.12442017 C21.28437598 134.22445306 19.1475323 134.25523064 17.01165771 134.25723267 C15.71099365 134.25852173 14.41032959 134.25981079 13.07025146 134.26113892 C12.38946533 134.25904419 11.7086792 134.25694946 11.00726318 134.25479126 C8.92662257 134.24944257 6.84619783 134.25473697 4.76556396 134.26113892 C2.81456787 134.25920532 2.81456787 134.25920532 0.82415771 134.25723267 C-0.37918213 134.25610474 -1.58252197 134.25497681 -2.82232666 134.2538147 C-5.58209229 134.12442017 -5.58209229 134.12442017 -6.58209229 133.12442017 C-6.68048935 131.41847925 -6.70841257 129.70844046 -6.70907593 127.99966431 C-6.71189575 126.88906647 -6.71471558 125.77846863 -6.71762085 124.63421631 C-6.71559662 123.40508514 -6.71357239 122.17595398 -6.71148682 120.90957642 C-6.71323914 119.62356537 -6.71499146 118.33755432 -6.71679688 117.01257324 C-6.72137082 113.47547852 -6.71958181 109.93841285 -6.71641779 106.4013176 C-6.71389398 102.70753651 -6.71623178 99.01375799 -6.71780396 95.31997681 C-6.71962559 89.1157893 -6.7172195 82.91161368 -6.71246338 76.70742798 C-6.70702077 69.52458652 -6.70878343 62.34177345 -6.71428978 55.15893269 C-6.71882109 49.00268211 -6.71947138 42.84644011 -6.71685112 36.69018841 C-6.71528843 33.00860313 -6.71509433 29.32703121 -6.7183876 25.64544678 C-6.7218004 21.5433686 -6.71707631 17.44133969 -6.71148682 13.33926392 C-6.71351105 12.11013275 -6.71553528 10.88100159 -6.71762085 9.61462402 C-6.71480103 8.50402618 -6.7119812 7.39342834 -6.70907593 6.24917603 C-6.7086989 5.27798325 -6.70832188 4.30679047 -6.70793343 3.3061676 C-6.45584702 -1.06433369 -3.73647222 0.00708476 0 0 Z"/>
<path transform="translate(571.5,474.75)" fill="#15171B" d="M0 0 C0.79019531 -0.00773437 1.58039062 -0.01546875 2.39453125 -0.0234375 C14.87108524 0.01740228 24.18246214 3.97867275 33.3125 12.625 C40.76104304 20.61069759 44.32246561 28.36123124 45.25390625 39.234375 C45.45685273 41.45209651 45.45685273 41.45209651 46.5 44.25 C46.57029121 46.82265818 46.59370832 49.36641431 46.5625 51.9375 C46.55798828 52.63939453 46.55347656 53.34128906 46.54882812 54.06445312 C46.53706927 55.79300538 46.51913454 57.52151365 46.5 59.25 C43.19456884 60.35181039 40.85404043 60.33420432 37.3762207 60.27172852 C36.11513992 60.25163223 34.85405914 60.23153595 33.55476379 60.21083069 C32.17843406 60.18363438 30.80210659 60.15632354 29.42578125 60.12890625 C28.01760119 60.10459998 26.60941308 60.08075667 25.20121765 60.05735779 C21.49725147 59.99456724 17.79342824 59.92548645 14.08959961 59.85510254 C10.30914818 59.7843736 6.5285955 59.71958394 2.74804688 59.65429688 C-4.66808074 59.52534939 -12.08406739 59.3897576 -19.5 59.25 C-19.20759875 60.68218095 -18.90801958 62.11289751 -18.60546875 63.54296875 C-18.35639771 64.73829224 -18.35639771 64.73829224 -18.10229492 65.95776367 C-16.80699027 70.88748209 -14.29269835 73.9887194 -10 76.5625 C-4.89096121 79.02578656 -1.22868913 79.72739076 4.5 79.25 C8.75082397 77.73713422 12.20908404 75.63045417 15.5 72.5625 C22.65765305 67.04514244 33.94173977 69.34276393 42.5 70.25 C42.83 70.58 43.16 70.91 43.5 71.25 C43.15529893 76.99501792 41.50426619 80.50132118 38.5 85.25 C37.84 85.25 37.18 85.25 36.5 85.25 C36.25121094 86.00152344 36.00242187 86.75304687 35.74609375 87.52734375 C33.26636369 92.94543733 28.01408078 96.11075221 22.70703125 98.515625 C19.98829012 99.52062172 17.27828846 100.42433963 14.5 101.25 C12.86417969 101.78947266 12.86417969 101.78947266 11.1953125 102.33984375 C7.01190727 103.37021734 3.28316263 103.54597312 -1 103.5 C-2.08087891 103.51160156 -2.08087891 103.51160156 -3.18359375 103.5234375 C-7.94673015 103.50621097 -11.94254774 102.76915075 -16.5 101.25 C-17.94632813 100.7859375 -17.94632813 100.7859375 -19.421875 100.3125 C-31.38526017 95.81796855 -39.97291749 87.76475524 -45.5 76.25 C-48.735094 68.39334314 -48.68206846 60.30750262 -48.6875 51.9375 C-48.69974609 50.95587891 -48.71199219 49.97425781 -48.72460938 48.96289062 C-48.75311505 34.60553438 -44.78927633 23.55167582 -35.25 12.6875 C-33.5 11.25 -33.5 11.25 -31.5 11.25 C-31.5 10.59 -31.5 9.93 -31.5 9.25 C-29.52904079 8.110682 -27.54772563 6.98927326 -25.5625 5.875 C-24.46035156 5.24851562 -23.35820313 4.62203125 -22.22265625 3.9765625 C-15.16883455 0.4218807 -7.77786394 -0.07612917 0 0 Z M-16.1328125 29.25390625 C-19.00541598 33.18655506 -19.00541598 33.18655506 -19.04467773 37.87670898 C-18.86493408 38.65989502 -18.68519043 39.44308105 -18.5 40.25 C-14.33740639 40.2748456 -10.17485287 40.29292862 -6.01220703 40.30493164 C-4.59813687 40.3099392 -3.18407184 40.31674718 -1.77001953 40.32543945 C0.27052073 40.33766256 2.31099212 40.3432642 4.3515625 40.34765625 C5.57697754 40.35289307 6.80239258 40.35812988 8.06494141 40.36352539 C11.30432849 40.25646676 14.32183197 39.86478618 17.5 39.25 C16.59145974 33.02582121 15.5431328 29.41058456 10.5 25.25 C9.84 24.59 9.18 23.93 8.5 23.25 C7.51 23.25 6.52 23.25 5.5 23.25 C5.5 22.59 5.5 21.93 5.5 21.25 C-4.32880704 20.36540737 -9.82028022 21.50670755 -16.1328125 29.25390625 Z"/>
<path transform="translate(450,476)" fill="#14161A" d="M0 0 C2.7578171 2.7578171 2.251155 4.34484201 2.25537109 8.20629883 C2.26233002 9.51137894 2.26928894 10.81645905 2.27645874 12.16108704 C2.2757777 12.86084467 2.27509666 13.5606023 2.27439499 14.28156471 C2.273431 16.47180756 2.28635711 18.66155789 2.30337524 20.85173035 C2.34968043 27.07925562 2.37424533 33.30673242 2.38085938 39.53442383 C2.38587992 43.34300353 2.41016006 47.15107195 2.44618607 50.95947838 C2.45597506 52.40947077 2.45832087 53.8595336 2.45301437 55.30954933 C2.44592895 57.34155585 2.46533848 59.37360213 2.48583984 61.40551758 C2.48868988 62.56086502 2.49153992 63.71621246 2.49447632 64.90657043 C3.24104877 69.47503952 5.61762002 71.82707153 9.0625 74.75 C13.55619625 76.66221117 18.16004211 76.75418778 23 77 C23 76.34 23 75.68 23 75 C23.928125 74.401875 24.85625 73.80375 25.8125 73.1875 C29.16173792 70.88900339 30.27305655 69.6028841 32 66 C32.44800752 62.92818905 32.44800752 62.92818905 32.38476562 59.58911133 C32.39487671 58.31461624 32.40498779 57.04012115 32.41540527 55.727005 C32.41384933 55.05147394 32.4122934 54.37594288 32.41069031 53.67994118 C32.40619781 51.5573748 32.42024852 49.4356357 32.43908691 47.31315613 C32.48202551 42.04676395 32.49314393 36.7803916 32.50531006 31.51385498 C32.51682084 27.05396022 32.5403138 22.59444603 32.58000183 18.13471031 C32.59360592 16.04169791 32.58939693 13.9491949 32.58459473 11.8561554 C32.59470581 10.59111679 32.60481689 9.32607819 32.61523438 8.02270508 C32.61728882 6.9052742 32.61934326 5.78784332 32.62145996 4.6365509 C32.74637817 3.76648911 32.87129639 2.89642731 33 2 C36.49336818 -0.32891212 37.86007865 -0.23551143 41.98046875 -0.1953125 C43.72553711 -0.18564453 43.72553711 -0.18564453 45.50585938 -0.17578125 C46.72080078 -0.15902344 47.93574219 -0.14226562 49.1875 -0.125 C50.41404297 -0.11597656 51.64058594 -0.10695313 52.90429688 -0.09765625 C55.93639295 -0.07406017 58.96809938 -0.04113841 62 0 C62.91751645 5.45290176 63.14280865 10.7005086 63.12939453 16.22412109 C63.13202301 17.56923767 63.13202301 17.56923767 63.13470459 18.94152832 C63.1390822 21.88551811 63.13620108 24.82944717 63.1328125 27.7734375 C63.13348636 29.82370007 63.13445707 31.87396256 63.13571167 33.92422485 C63.13718279 38.2094194 63.13505158 42.49459304 63.13037109 46.77978516 C63.1246525 52.28474767 63.12796993 57.78966166 63.13394356 63.29462242 C63.13754657 67.52206797 63.13641217 71.74950189 63.13381577 75.97694778 C63.13314689 78.00803254 63.13397355 80.03911834 63.13629532 82.07020187 C63.1388199 84.89757873 63.13498501 87.72487526 63.12939453 90.55224609 C63.13141876 91.39792145 63.13344299 92.2435968 63.13552856 93.11489868 C63.11426704 98.88573296 63.11426704 98.88573296 62 100 C60.08541718 100.09971786 58.16717683 100.13080589 56.25 100.1328125 C55.0846875 100.13410156 53.919375 100.13539063 52.71875 100.13671875 C51.4915625 100.13285156 50.264375 100.12898437 49 100.125 C47.15921875 100.13080078 47.15921875 100.13080078 45.28125 100.13671875 C44.1159375 100.13542969 42.950625 100.13414062 41.75 100.1328125 C40.67234375 100.13168457 39.5946875 100.13055664 38.484375 100.12939453 C36 100 36 100 35 99 C34.76807135 97.48530552 34.58784762 95.96245438 34.4375 94.4375 C34.35371094 93.61121094 34.26992188 92.78492188 34.18359375 91.93359375 C34.12300781 91.29550781 34.06242187 90.65742187 34 90 C33.50371094 90.47050781 33.00742187 90.94101562 32.49609375 91.42578125 C24.03056522 99.18451044 14.49727943 102.48394161 3 102 C-7.17350367 100.23069501 -14.71701866 97.35074723 -21.42578125 89.28515625 C-26.50976387 81.90518147 -28.12368944 73.83848361 -28.12939453 65.02246094 C-28.13114685 64.34058716 -28.13289917 63.65871338 -28.13470459 62.95617676 C-28.13908537 60.71554985 -28.13619978 58.47500262 -28.1328125 56.234375 C-28.13348631 54.67449936 -28.13445698 53.11462382 -28.13571167 51.55474854 C-28.13718326 48.29332474 -28.13505024 45.03192841 -28.13037109 41.77050781 C-28.12465515 37.58154 -28.12796795 33.39263601 -28.13394356 29.2036705 C-28.13754759 25.98675043 -28.13641165 22.76984563 -28.13381577 19.55292511 C-28.13314704 18.00748945 -28.13397304 16.46205241 -28.13629532 14.91661835 C-28.1388213 12.76436145 -28.13498295 10.61220994 -28.12939453 8.45996094 C-28.12859894 7.23372009 -28.12780334 6.00747925 -28.12698364 4.74407959 C-28 2 -28 2 -27 1 C-24.53543478 0.75714138 -22.09601444 0.57328541 -19.625 0.4375 C-18.90489746 0.3964917 -18.18479492 0.3554834 -17.44287109 0.31323242 C-3.74544606 -0.42333586 -3.74544606 -0.42333586 0 0 Z"/>
<path transform="translate(638.67578125,437.677734375)" fill="#1F2125" d="M0 0 C1.26199219 0.00322266 2.52398438 0.00644531 3.82421875 0.00976562 C5.08621094 -0.00634766 6.34820313 -0.02246094 7.6484375 -0.0390625 C8.85113281 -0.03970703 10.05382812 -0.04035156 11.29296875 -0.04101562 C12.95489258 -0.04548706 12.95489258 -0.04548706 14.65039062 -0.05004883 C15.53275391 0.07281494 16.41511719 0.19567871 17.32421875 0.32226562 C19.79392765 4.02682898 19.59485893 6.80784484 19.5546875 11.09179688 C19.55461197 12.33402512 19.55461197 12.33402512 19.55453491 13.60134888 C19.55082558 16.44595394 19.53156618 19.29023004 19.51171875 22.13476562 C19.50406529 24.17521009 19.49683784 26.21565619 19.48999023 28.25610352 C19.46017754 35.16411753 19.40475464 42.07185687 19.34455872 48.97966003 C19.32283677 51.48143174 19.30172541 53.98320821 19.28063965 56.48498535 C19.17342657 69.08742877 19.05061385 81.68966996 18.91760635 94.2918663 C18.88662349 97.26891912 18.85705177 100.24598339 18.82772827 103.22305298 C18.78058093 107.95800936 18.72807593 112.69287814 18.67146683 117.42773056 C18.65098215 119.20235222 18.63217823 120.97699412 18.61509323 122.75165176 C18.59121047 125.19315793 18.56120245 127.63451186 18.52954102 130.07592773 C18.52090924 131.16380695 18.52090924 131.16380695 18.51210308 132.27366352 C18.43841198 137.20807239 18.43841198 137.20807239 17.32421875 138.32226562 C15.33664847 138.4220962 13.34554355 138.45307316 11.35546875 138.45507812 C10.14503906 138.45636719 8.93460938 138.45765625 7.6875 138.45898438 C6.41261719 138.45511719 5.13773438 138.45125 3.82421875 138.44726562 C1.91189453 138.45306641 1.91189453 138.45306641 -0.0390625 138.45898438 C-1.85470703 138.45705078 -1.85470703 138.45705078 -3.70703125 138.45507812 C-4.82658203 138.4539502 -5.94613281 138.45282227 -7.09960938 138.45166016 C-9.67578125 138.32226562 -9.67578125 138.32226562 -10.67578125 137.32226562 C-10.78863011 135.58100719 -10.83153969 133.83518609 -10.84745789 132.09034729 C-10.86013702 130.95595215 -10.87281616 129.82155701 -10.88587952 128.65278625 C-10.89477707 127.39717392 -10.90367462 126.14156158 -10.9128418 124.84790039 C-10.92595398 123.53423492 -10.93906616 122.22056946 -10.95257568 120.86709595 C-10.98826477 117.25353158 -11.01745504 113.63994223 -11.04496741 110.02630734 C-11.0624425 107.77109236 -11.08132241 105.51589374 -11.10071754 103.2606945 C-11.16831426 95.39998564 -11.23073038 87.53925512 -11.28833008 79.6784668 C-11.34223657 72.33991351 -11.40733194 65.00151715 -11.47766846 57.66310459 C-11.53748285 51.37185976 -11.58956966 45.08058197 -11.63559562 38.78922123 C-11.66324437 35.0276227 -11.69405909 31.26611403 -11.7326107 27.50461006 C-11.77526157 23.31177964 -11.8018653 19.11899794 -11.8269043 14.92602539 C-11.84187454 13.67243729 -11.85684479 12.41884918 -11.87226868 11.12727356 C-11.87648834 9.99005859 -11.88070801 8.85284363 -11.88505554 7.6811676 C-11.89297465 6.68877358 -11.90089376 5.69637957 -11.90905285 4.673913 C-11.28456434 -1.62165305 -4.8366259 0.02851173 0 0 Z"/>
<path transform="translate(960,475)" fill="#272A2E" d="M0 0 C2.47807047 2.47807047 2.25650238 3.23592468 2.265625 6.6484375 C2.26949219 8.03289062 2.26949219 8.03289062 2.2734375 9.4453125 C2.26570312 10.41210938 2.25796875 11.37890625 2.25 12.375 C2.26160156 13.81359375 2.26160156 13.81359375 2.2734375 15.28125 C2.27085937 16.20679688 2.26828125 17.13234375 2.265625 18.0859375 C2.26336914 18.9320459 2.26111328 19.7781543 2.25878906 20.64990234 C1.98068921 23.17536387 1.2679848 24.81722775 0 27 C-1.18078125 27.06058594 -2.3615625 27.12117188 -3.578125 27.18359375 C-5.1354277 27.26802582 -6.69271879 27.35267249 -8.25 27.4375 C-9.41595703 27.49647461 -9.41595703 27.49647461 -10.60546875 27.55664062 C-11.35957031 27.59853516 -12.11367188 27.64042969 -12.890625 27.68359375 C-13.58188477 27.72025146 -14.27314453 27.75690918 -14.98535156 27.79467773 C-17.06628329 28.00675524 -18.98572422 28.44508677 -21 29 C-21 29.66 -21 30.32 -21 31 C-21.61875 31.5775 -22.2375 32.155 -22.875 32.75 C-26.79052349 36.8958484 -27.24888049 41.66155901 -27.31884766 47.18896484 C-27.33871735 48.38975677 -27.35858704 49.59054871 -27.37905884 50.82772827 C-27.39061005 52.10918732 -27.40216125 53.39064636 -27.4140625 54.7109375 C-27.43279211 56.04758882 -27.45236684 57.38422855 -27.4727478 58.72085571 C-27.52388601 62.2224033 -27.56360901 65.72398914 -27.60089111 69.22570801 C-27.64104627 72.80551474 -27.69208583 76.38516485 -27.7421875 79.96484375 C-27.83872954 86.97644781 -27.92320317 93.98815262 -28 101 C-32.45831982 101.02891546 -36.91661569 101.04676981 -41.375 101.0625 C-42.64601563 101.07087891 -43.91703125 101.07925781 -45.2265625 101.08789062 C-46.43828125 101.09111328 -47.65 101.09433594 -48.8984375 101.09765625 C-50.57945557 101.10551147 -50.57945557 101.10551147 -52.29443359 101.11352539 C-55 101 -55 101 -57 100 C-57.04628695 87.66536645 -57.08185067 75.33075346 -57.10362434 62.99605083 C-57.11407322 57.26890183 -57.12825256 51.54181213 -57.15087891 45.81469727 C-57.17256791 40.29043302 -57.18456031 34.76622591 -57.18975449 29.24192238 C-57.19345734 27.13154005 -57.20068782 25.02116093 -57.21146011 22.91080284 C-57.22592258 19.96089225 -57.22798014 17.01121948 -57.22705078 14.0612793 C-57.23424133 13.18374496 -57.24143188 12.30621063 -57.24884033 11.40208435 C-57.22810432 5.34215648 -57.22810432 5.34215648 -55 2 C-52.69335938 1.62768555 -52.69335938 1.62768555 -49.84375 1.63671875 C-48.82152344 1.63736328 -47.79929687 1.63800781 -46.74609375 1.63867188 C-45.67488281 1.65478516 -44.60367188 1.67089844 -43.5 1.6875 C-41.89318359 1.68266602 -41.89318359 1.68266602 -40.25390625 1.67773438 C-32.26687004 1.73312996 -32.26687004 1.73312996 -30 4 C-29.60235737 5.98821313 -29.26224651 7.98944339 -29 10 C-28.21625 9.34 -27.4325 8.68 -26.625 8 C-24 6 -24 6 -22 6 C-22 5.34 -22 4.68 -22 4 C-14.88811171 0.72853139 -7.88976599 -0.93099239 0 0 Z"/>
<path transform="translate(673,479)" fill="#0B0D11" d="M0 0 C9.24 0 18.48 0 28 0 C28 32.01 28 64.02 28 97 C18.43 96.67 8.86 96.34 -1 96 C-0.67 64.32 -0.34 32.64 0 0 Z"/>
<path transform="translate(695.25390625,434.9453125)" fill="#EAEAEA" d="M0 0 C4.16114856 2.43691573 6.63841566 4.61713634 8.74609375 9.0546875 C9.14453125 12.2109375 9.14453125 12.2109375 9.12109375 15.5546875 C9.13269531 17.20984375 9.13269531 17.20984375 9.14453125 18.8984375 C8.70393423 22.38865703 7.83530287 24.25087954 5.74609375 27.0546875 C3.05859375 28.8671875 3.05859375 28.8671875 0.74609375 30.0546875 C1.85984375 30.1784375 2.97359375 30.3021875 4.12109375 30.4296875 C7.74609375 31.0546875 7.74609375 31.0546875 9.74609375 33.0546875 C11.01932104 35.37645492 11.90471791 37.53055998 12.74609375 40.0546875 C21.05902954 41.11659667 29.27073285 41.14746231 37.63195801 41.06872177 C40.10327378 41.04647275 42.57451056 41.03254471 45.04589844 41.02102661 C52.06439878 40.98762 59.08276522 40.94539696 66.10107422 40.88330078 C70.4114041 40.84575019 74.72160514 40.8226679 79.03207397 40.80899429 C80.67161694 40.80093019 82.3111422 40.78730746 83.95059204 40.76806259 C86.23154957 40.74171311 88.51187849 40.73370357 90.79296875 40.72998047 C92.73961426 40.71546341 92.73961426 40.71546341 94.72558594 40.70065308 C95.72235352 40.81748444 96.71912109 40.9343158 97.74609375 41.0546875 C100.3246961 44.92259102 99.7572388 47.82082665 99.37109375 52.2421875 C99.28601563 53.36657227 99.28601563 53.36657227 99.19921875 54.51367188 C99.05798706 56.36145309 98.90333208 58.2081995 98.74609375 60.0546875 C98.41609375 60.0546875 98.08609375 60.0546875 97.74609375 60.0546875 C97.74609375 54.4446875 97.74609375 48.8346875 97.74609375 43.0546875 C71.34609375 43.0546875 44.94609375 43.0546875 17.74609375 43.0546875 C17.74609375 50.6446875 17.74609375 58.2346875 17.74609375 66.0546875 C31.93609375 66.0546875 46.12609375 66.0546875 60.74609375 66.0546875 C60.25109375 67.5396875 60.25109375 67.5396875 59.74609375 69.0546875 C59.74609375 68.3946875 59.74609375 67.7346875 59.74609375 67.0546875 C53.74951675 67.02453861 47.75541411 67.04017546 41.7590332 67.09741211 C39.72131481 67.11051485 37.68347741 67.11132007 35.64575195 67.09936523 C32.70796648 67.08429967 29.77345525 67.11411688 26.8359375 67.15234375 C25.93149399 67.13808853 25.02705048 67.12383331 24.09519958 67.10914612 C19.12844671 67.22167077 16.3748025 67.85140087 12.74047852 71.36108398 C8.74690212 75.79993091 7.50146884 79.1210973 7.42724609 85.10839844 C7.4073764 86.32936218 7.38750671 87.55032593 7.36703491 88.80828857 C7.3497081 90.77877167 7.3497081 90.77877167 7.33203125 92.7890625 C7.31331429 94.1509925 7.29374047 95.51291098 7.27334595 96.87481689 C7.22207425 100.45201817 7.18242223 104.02925702 7.14520264 107.60662842 C7.1051317 111.25998187 7.0540535 114.91317968 7.00390625 118.56640625 C6.90720581 125.72905979 6.82278247 132.89178878 6.74609375 140.0546875 C6.41609375 140.0546875 6.08609375 140.0546875 5.74609375 140.0546875 C5.74609375 108.3746875 5.74609375 76.6946875 5.74609375 44.0546875 C-3.49390625 44.0546875 -12.73390625 44.0546875 -22.25390625 44.0546875 C-22.25390625 43.0646875 -22.25390625 42.0746875 -22.25390625 41.0546875 C-20.93390625 41.0546875 -19.61390625 41.0546875 -18.25390625 41.0546875 C-18.25390625 40.3946875 -18.25390625 39.7346875 -18.25390625 39.0546875 C-19.24390625 39.0546875 -20.23390625 39.0546875 -21.25390625 39.0546875 C-21.74890625 37.5696875 -21.74890625 37.5696875 -22.25390625 36.0546875 C-20.76890625 35.5596875 -20.76890625 35.5596875 -19.25390625 35.0546875 C-17.55508177 32.55708768 -17.55508177 32.55708768 -16.25390625 30.0546875 C-17.03765625 29.5184375 -17.82140625 28.9821875 -18.62890625 28.4296875 C-22.71360346 24.73400907 -23.13936103 21.49795731 -23.56640625 16.1171875 C-23.41707291 10.91043175 -21.65842336 6.78692527 -18.37890625 2.7421875 C-13.07878632 -1.46673127 -6.33083712 -2.65522111 0 0 Z"/>
<path transform="translate(335.58209228515625,441.8755798339844)" fill="#6F6F70" d="M0 0 C1.20085236 0.00539291 1.20085236 0.00539291 2.42596436 0.01089478 C3.26491745 0.01074875 4.10387054 0.01060272 4.96824646 0.01045227 C7.75487816 0.01115167 10.54144388 0.01894531 13.32806396 0.02676392 C15.25477563 0.028628 17.18148777 0.03005195 19.10820007 0.03105164 C24.18978169 0.03487758 29.27133491 0.04470851 34.35290527 0.05575562 C39.53407405 0.0659681 44.7152474 0.07054891 49.89642334 0.07559204 C60.07026397 0.08633071 70.24408348 0.10340804 80.41790771 0.12442017 C80.44683628 4.08273826 80.46468199 8.04102933 80.48040771 11.99942017 C80.48878662 13.12734985 80.49716553 14.25527954 80.50579834 15.41738892 C80.509021 16.4937561 80.51224365 17.57012329 80.51556396 18.67910767 C80.52080078 19.67410278 80.5260376 20.6690979 80.53143311 21.69424438 C80.41790771 24.12442017 80.41790771 24.12442017 79.41790771 26.12442017 C60.93790771 26.12442017 42.45790771 26.12442017 23.41790771 26.12442017 C23.74790771 36.02442017 24.07790771 45.92442017 24.41790771 56.12442017 C40.25790771 56.45442017 56.09790771 56.78442017 72.41790771 57.12442017 C72.41790771 64.38442017 72.41790771 71.64442017 72.41790771 79.12442017 C68.72746476 80.96964164 67.67023478 81.37302875 63.83294678 81.35147095 C62.48199921 81.35124435 62.48199921 81.35124435 61.10375977 81.35101318 C60.14008484 81.34069061 59.17640991 81.33036804 58.18353271 81.31973267 C56.69378937 81.31548782 56.69378937 81.31548782 55.1739502 81.31115723 C52.00514627 81.2999716 48.83662606 81.27486979 45.66790771 81.24942017 C43.51817222 81.23938828 41.36843228 81.2302628 39.21868896 81.22207642 C33.95166525 81.20003758 28.68480676 81.16657601 23.41790771 81.12442017 C23.4326564 81.77365952 23.44740509 82.42289886 23.46260071 83.09181213 C23.61452465 89.82318021 23.7593933 96.55467339 23.90008545 103.2862854 C23.95359638 105.80162442 24.00893241 108.31692529 24.06610107 110.83218384 C24.14775907 114.43862678 24.22294412 118.04515412 24.29681396 121.65176392 C24.32384903 122.78403915 24.35088409 123.91631439 24.3787384 125.082901 C24.39883469 126.12390457 24.41893097 127.16490814 24.43963623 128.23745728 C24.45962173 129.15901108 24.47960724 130.08056488 24.50019836 131.03004456 C24.41790771 133.12442017 24.41790771 133.12442017 23.41790771 134.12442017 C21.28437598 134.22445306 19.1475323 134.25523064 17.01165771 134.25723267 C15.71099365 134.25852173 14.41032959 134.25981079 13.07025146 134.26113892 C12.38946533 134.25904419 11.7086792 134.25694946 11.00726318 134.25479126 C8.92662257 134.24944257 6.84619783 134.25473697 4.76556396 134.26113892 C2.81456787 134.25920532 2.81456787 134.25920532 0.82415771 134.25723267 C-0.37918213 134.25610474 -1.58252197 134.25497681 -2.82232666 134.2538147 C-5.58209229 134.12442017 -5.58209229 134.12442017 -6.58209229 133.12442017 C-6.68048935 131.41847925 -6.70841257 129.70844046 -6.70907593 127.99966431 C-6.71189575 126.88906647 -6.71471558 125.77846863 -6.71762085 124.63421631 C-6.71559662 123.40508514 -6.71357239 122.17595398 -6.71148682 120.90957642 C-6.71323914 119.62356537 -6.71499146 118.33755432 -6.71679688 117.01257324 C-6.72137082 113.47547852 -6.71958181 109.93841285 -6.71641779 106.4013176 C-6.71389398 102.70753651 -6.71623178 99.01375799 -6.71780396 95.31997681 C-6.71962559 89.1157893 -6.7172195 82.91161368 -6.71246338 76.70742798 C-6.70702077 69.52458652 -6.70878343 62.34177345 -6.71428978 55.15893269 C-6.71882109 49.00268211 -6.71947138 42.84644011 -6.71685112 36.69018841 C-6.71528843 33.00860313 -6.71509433 29.32703121 -6.7183876 25.64544678 C-6.7218004 21.5433686 -6.71707631 17.44133969 -6.71148682 13.33926392 C-6.71351105 12.11013275 -6.71553528 10.88100159 -6.71762085 9.61462402 C-6.71480103 8.50402618 -6.7119812 7.39342834 -6.70907593 6.24917603 C-6.7086989 5.27798325 -6.70832188 4.30679047 -6.70793343 3.3061676 C-6.45584702 -1.06433369 -3.73647222 0.00708476 0 0 Z M-2.58209229 1.12442017 C-3.85159086 3.66341731 -3.70510701 5.41925438 -3.7023468 8.26226807 C-3.70372147 9.35044327 -3.70509613 10.43861847 -3.70651245 11.55976868 C-3.70291718 12.75882339 -3.6993219 13.95787811 -3.69561768 15.19326782 C-3.6957637 16.45177048 -3.69590973 17.71027313 -3.69606018 19.00691223 C-3.69634776 22.46330933 -3.69045737 25.91967191 -3.68348622 29.37606096 C-3.67724616 32.98621986 -3.67664837 36.59637951 -3.67546082 40.20654297 C-3.67234943 47.0453073 -3.66413863 53.8840557 -3.65411133 60.72281301 C-3.64294422 68.50747328 -3.63743823 76.2921343 -3.63241589 84.07680058 C-3.62195586 100.09268458 -3.60361277 116.10854663 -3.58209229 132.12442017 C4.66790771 132.12442017 12.91790771 132.12442017 21.41790771 132.12442017 C21.41790771 114.30442017 21.41790771 96.48442017 21.41790771 78.12442017 C37.58790771 78.12442017 53.75790771 78.12442017 70.41790771 78.12442017 C70.41790771 71.85442017 70.41790771 65.58442017 70.41790771 59.12442017 C54.24790771 59.12442017 38.07790771 59.12442017 21.41790771 59.12442017 C21.74790771 47.57442017 22.07790771 36.02442017 22.41790771 24.12442017 C50.63290771 23.62942017 50.63290771 23.62942017 79.41790771 23.12442017 C79.41790771 15.86442017 79.41790771 8.60442017 79.41790771 1.12442017 C52.35790771 1.12442017 25.29790771 1.12442017 -2.58209229 1.12442017 Z"/>
<path transform="translate(693,436)" fill="#0A0C10" d="M0 0 C3.375 1.6875 3.375 1.6875 6 4 C6.78375 4.680625 7.5675 5.36125 8.375 6.0625 C10.91285384 10.65015887 11.08194075 14.89637161 10 20 C7.46145656 24.2466591 4.74071586 27.41976138 0 29 C-4.60695166 29.57953691 -9.09652188 30.07775329 -13.2421875 27.73046875 C-16.64928027 24.82525064 -18.82921176 22.76643835 -19.2734375 18.171875 C-19.58141752 7.79531726 -19.58141752 7.79531726 -16.75 4.3125 C-11.39091251 -0.19400539 -6.89349674 -0.88350196 0 0 Z"/>
<path transform="translate(413,445)" fill="#404041" d="M0 0 C0.33 0 0.66 0 1 0 C1.495 11.385 1.495 11.385 2 23 C-16.48 23 -34.96 23 -54 23 C-53.67 32.9 -53.34 42.8 -53 53 C-37.16 53.33 -21.32 53.66 -5 54 C-5 61.26 -5 68.52 -5 76 C-21.5 76 -38 76 -55 76 C-55 93.82 -55 111.64 -55 130 C-63.25 130 -71.5 130 -80 130 C-80 129.67 -80 129.34 -80 129 C-72.08 129 -64.16 129 -56 129 C-56 111.18 -56 93.36 -56 75 C-39.83 75 -23.66 75 -7 75 C-7 68.73 -7 62.46 -7 56 C-23.17 56 -39.34 56 -56 56 C-56.0309375 47.3684375 -56.0309375 47.3684375 -56.0625 38.5625 C-56.071604 36.74435791 -56.08070801 34.92621582 -56.09008789 33.05297852 C-56.09300711 31.61995518 -56.09555566 30.18693102 -56.09765625 28.75390625 C-56.10277222 28.00330933 -56.10788818 27.2527124 -56.11315918 26.47937012 C-56.11346992 24.65252399 -56.06231113 22.82578317 -56 21 C-55 20 -55 20 -52.79173279 19.87974548 C-51.81688431 19.88196609 -50.84203583 19.88418671 -49.83764648 19.88647461 C-48.73658066 19.88655014 -47.63551483 19.88662567 -46.50108337 19.88670349 C-45.3031868 19.89186478 -44.10529022 19.89702606 -42.87109375 19.90234375 C-41.65172623 19.9037587 -40.4323587 19.90517365 -39.17604065 19.90663147 C-35.2631693 19.91225033 -31.35035419 19.92480604 -27.4375 19.9375 C-24.79231853 19.94251257 -22.14713617 19.9470759 -19.50195312 19.95117188 C-13.00128026 19.96222589 -6.50064968 19.97950317 0 20 C0 13.4 0 6.8 0 0 Z"/>
<path transform="translate(491.98046875,475.8046875)" fill="#787A7C" d="M0 0 C1.74506836 0.00966797 1.74506836 0.00966797 3.52539062 0.01953125 C4.74033203 0.03628906 5.95527344 0.05304688 7.20703125 0.0703125 C8.43357422 0.07933594 9.66011719 0.08835937 10.92382812 0.09765625 C13.9559242 0.12125233 16.98763063 0.15417409 20.01953125 0.1953125 C20.9370477 5.64821426 21.1623399 10.8958211 21.14892578 16.41943359 C21.1506781 17.31617798 21.15243042 18.21292236 21.15423584 19.13684082 C21.15861345 22.08083061 21.15573233 25.02475967 21.15234375 27.96875 C21.15301761 30.01901257 21.15398832 32.06927506 21.15524292 34.11953735 C21.15671404 38.4047319 21.15458283 42.68990554 21.14990234 46.97509766 C21.14418375 52.48006017 21.14750118 57.98497416 21.15347481 63.48993492 C21.15707782 67.71738047 21.15594342 71.94481439 21.15334702 76.17226028 C21.15267814 78.20334504 21.1535048 80.23443084 21.15582657 82.26551437 C21.15835115 85.09289123 21.15451626 87.92018776 21.14892578 90.74755859 C21.15095001 91.59323395 21.15297424 92.4389093 21.15505981 93.31021118 C21.13379829 99.08104546 21.13379829 99.08104546 20.01953125 100.1953125 C17.83313672 100.26790196 15.64452736 100.27905033 13.45703125 100.2578125 C12.25949219 100.24878906 11.06195313 100.23976563 9.828125 100.23046875 C8.43787109 100.21306641 8.43787109 100.21306641 7.01953125 100.1953125 C7.01953125 99.8653125 7.01953125 99.5353125 7.01953125 99.1953125 C8.93765625 98.97875 8.93765625 98.97875 10.89453125 98.7578125 C13.27646019 98.48888504 14.86405816 98.27304904 17.01953125 97.1953125 C17.01953125 66.8353125 17.01953125 36.4753125 17.01953125 5.1953125 C9.75953125 5.1953125 2.49953125 5.1953125 -4.98046875 5.1953125 C-4.98046875 25.3253125 -4.98046875 45.4553125 -4.98046875 66.1953125 C-5.31046875 66.1953125 -5.64046875 66.1953125 -5.98046875 66.1953125 C-5.98046875 45.7353125 -5.98046875 25.2753125 -5.98046875 4.1953125 C1.93953125 4.1953125 9.85953125 4.1953125 18.01953125 4.1953125 C18.01953125 3.8653125 18.01953125 3.5353125 18.01953125 3.1953125 C9.76953125 2.8653125 1.51953125 2.5353125 -6.98046875 2.1953125 C-6.96999512 4.0525293 -6.95952148 5.90974609 -6.94873047 7.82324219 C-6.91647014 13.96196512 -6.89349457 20.10066798 -6.87684441 26.23945236 C-6.86641064 29.9611154 -6.85225893 33.68268666 -6.82958984 37.40429688 C-6.80784685 40.99638012 -6.79589706 44.58837513 -6.79071426 48.1805191 C-6.78702111 49.55044188 -6.7798093 50.92035988 -6.76900864 52.29024506 C-6.75447526 54.21005029 -6.75365167 56.12994446 -6.75341797 58.04980469 C-6.74897675 59.14234558 -6.74453552 60.23488647 -6.73995972 61.36053467 C-6.97824842 64.16914241 -7.52632462 65.81172795 -8.98046875 68.1953125 C-10.36419258 65.42786484 -10.0798672 63.22138334 -10.04980469 60.125 C-10.03939148 58.85027832 -10.02897827 57.57555664 -10.01824951 56.26220703 C-10.00100004 54.86490193 -9.98318448 53.46760371 -9.96484375 52.0703125 C-9.94815582 50.6430667 -9.93149356 49.2158206 -9.91485596 47.78857422 C-9.87836633 44.79583183 -9.83713375 41.80319243 -9.79345703 38.81054688 C-9.73841918 34.97030863 -9.70191672 31.13013131 -9.66982651 27.28964233 C-9.64200472 24.34187285 -9.60095274 21.39439529 -9.55622101 18.44683838 C-9.53699019 17.03067801 -9.52271242 15.6144416 -9.5134201 14.19818115 C-9.49913915 12.22051242 -9.46442333 10.24302283 -9.42871094 8.265625 C-9.41459167 7.13914551 -9.40047241 6.01266602 -9.38592529 4.85205078 C-9.25212463 3.97532715 -9.11832397 3.09860352 -8.98046875 2.1953125 C-5.48710057 -0.13359962 -4.1203901 -0.04019893 0 0 Z"/>
<path transform="translate(711,478)" fill="#F5F5F6" d="M0 0 C0.144375 1.134375 0.28875 2.26875 0.4375 3.4375 C0.61171478 6.80777201 0.61171478 6.80777201 2 8 C2 12.95 2 17.9 2 23 C16.19 23 30.38 23 45 23 C44.505 24.485 44.505 24.485 44 26 C44 25.34 44 24.68 44 24 C38.003423 23.96985111 32.00932036 23.98548796 26.01293945 24.04272461 C23.97522106 24.05582735 21.93738366 24.05663257 19.8996582 24.04467773 C16.96187273 24.02961217 14.0273615 24.05942938 11.08984375 24.09765625 C9.73317848 24.07627342 9.73317848 24.07627342 8.34910583 24.05445862 C3.39062364 24.1667959 0.66017328 24.77570051 -2.94311523 28.30639648 C-5.11656376 30.7756802 -7.02087779 33.36117039 -9 36 C-9 24.12 -9 12.24 -9 0 C-5.16380575 -0.95904856 -3.67568464 -0.91892116 0 0 Z"/>
<path transform="translate(905,479)" fill="#000102" d="M0 0 C7.59 0 15.18 0 23 0 C23 2.31 23 4.62 23 7 C22.67 7 22.34 7 22 7 C22 5.02 22 3.04 22 1 C15.07 1 8.14 1 1 1 C1 32.02 1 63.04 1 95 C8.59 94.67 16.18 94.34 24 94 C23.505 93.01 23.505 93.01 23 92 C22.92785294 90.2892697 22.92127603 88.57559006 22.9465332 86.86352539 C22.9601741 85.79223892 22.973815 84.72095245 22.98786926 83.61720276 C23.00863022 82.45575241 23.02939117 81.29430206 23.05078125 80.09765625 C23.0696489 78.90901474 23.08851654 77.72037323 23.10795593 76.49571228 C23.14989162 73.97797028 23.19463424 71.46027372 23.24194336 68.94262695 C23.3121402 65.08228643 23.36647001 61.22193223 23.41992188 57.36132812 C23.46256888 54.91925365 23.50615726 52.4771954 23.55078125 50.03515625 C23.56546951 48.87573013 23.58015778 47.71630402 23.59529114 46.52174377 C23.61838852 45.44730515 23.6414859 44.37286652 23.6652832 43.26586914 C23.68162308 42.31925919 23.69796295 41.37264923 23.71479797 40.39735413 C24 38 24 38 26 35 C26 55.13 26 75.26 26 96 C17.42 96 8.84 96 0 96 C0 64.32 0 32.64 0 0 Z"/>
<path transform="translate(713,478)" fill="#222224" d="M0 0 C26.4 0 52.8 0 80 0 C80 5.94 80 11.88 80 18 C78.68 18.66 77.36 19.32 76 20 C76.495 18.515 76.495 18.515 77 17 C77.33 12.05 77.66 7.1 78 2 C52.92 2 27.84 2 2 2 C2 8.6 2 15.2 2 22 C1.67 22 1.34 22 1 22 C0.67 14.74 0.34 7.48 0 0 Z"/>
<path transform="translate(614,521)" fill="#090A0C" d="M0 0 C0.99 0.66 1.98 1.32 3 2 C3 5.3 3 8.6 3 12 C-19.11 12.33 -41.22 12.66 -64 13 C-63.67 12.01 -63.34 11.02 -63 10 C-42.21 10 -21.42 10 0 10 C0 6.7 0 3.4 0 0 Z"/>
<path transform="translate(510,478)" fill="#67686B" d="M0 0 C0.99 0 1.98 0 3 0 C3.02312132 12.62995485 3.04091401 25.2599047 3.05181217 37.88987637 C3.05704146 43.75382164 3.06413994 49.61775249 3.07543945 55.48168945 C3.0862667 61.13561712 3.09227649 66.78953087 3.09487724 72.44346809 C3.09673179 74.6057361 3.10035295 76.76800331 3.10573006 78.93026543 C3.11293833 81.94758657 3.11399103 84.96484943 3.11352539 87.98217773 C3.11712067 88.8856041 3.12071594 89.78903046 3.12442017 90.71983337 C3.11405216 96.88594784 3.11405216 96.88594784 2 98 C-0.18639453 98.07258946 -2.37500389 98.08373783 -4.5625 98.0625 C-5.76003906 98.05347656 -6.95757812 98.04445313 -8.19140625 98.03515625 C-9.58166016 98.01775391 -9.58166016 98.01775391 -11 98 C-11 97.67 -11 97.34 -11 97 C-9.081875 96.7834375 -9.081875 96.7834375 -7.125 96.5625 C-4.74307106 96.29357254 -3.15547309 96.07773654 -1 95 C-1 92.36 -1 89.72 -1 87 C-0.67 87 -0.34 87 0 87 C0 58.29 0 29.58 0 0 Z"/>
<path transform="translate(869.53125,479.4765625)" fill="#EFEFEF" d="M0 0 C14.12558126 9.317778 14.12558126 9.317778 16.18359375 15.76171875 C16.27769531 16.34308594 16.37179687 16.92445313 16.46875 17.5234375 C11.46875 12.5234375 11.46875 12.5234375 9.28125 9.9609375 C6.00633664 7.12267925 2.94787574 5.91934921 -1.08203125 4.4375 C-4.0328441 3.3362397 -6.74723462 1.98870875 -9.53125 0.5234375 C-9.53125 -0.1365625 -9.53125 -0.7965625 -9.53125 -1.4765625 C-19.23958638 -3.32576943 -29.19022722 -3.52809346 -38.54296875 -0.1328125 C-40.53125 0.5234375 -40.53125 0.5234375 -43.53125 0.5234375 C-43.53125 1.1834375 -43.53125 1.8434375 -43.53125 2.5234375 C-44.85125 2.1934375 -46.17125 1.8634375 -47.53125 1.5234375 C-46.34804424 0.89034559 -45.15937152 0.26747032 -43.96875 -0.3515625 C-43.30746094 -0.69960938 -42.64617188 -1.04765625 -41.96484375 -1.40625 C-29.61748196 -6.83671088 -11.76115046 -6.8606711 0 0 Z"/>
<path transform="translate(595.28515625,570.8828125)" fill="#5B5C5C" d="M0 0 C0.56589844 0.36867188 1.13179687 0.73734375 1.71484375 1.1171875 C0.02852383 1.74536454 -1.65928076 2.36955643 -3.34765625 2.9921875 C-4.28738281 3.34023438 -5.22710938 3.68828125 -6.1953125 4.046875 C-12.60146759 6.26594768 -18.04792474 7.43950126 -24.78515625 7.3671875 C-25.50574219 7.37492188 -26.22632813 7.38265625 -26.96875 7.390625 C-34.62851845 7.3629224 -41.21954733 4.84426463 -48.28515625 2.1171875 C-48.28515625 1.7871875 -48.28515625 1.4571875 -48.28515625 1.1171875 C-43.93087735 0.09810095 -41.29997596 -0.08306959 -37.1171875 1.5703125 C-32.30065021 3.26026506 -27.98676169 3.61600795 -22.91015625 3.5546875 C-22.08378662 3.55291504 -21.25741699 3.55114258 -20.40600586 3.54931641 C-14.53532734 3.42393109 -9.73507721 2.41040711 -4.4140625 -0.203125 C-2.28515625 -0.8828125 -2.28515625 -0.8828125 0 0 Z"/>
<path transform="translate(161,405)" fill="#555AE0" d="M0 0 C19.14 0 38.28 0 58 0 C59.45270828 7.26354141 60.21552851 12.52684732 59.625 19.625 C59.53992188 20.84509766 59.53992188 20.84509766 59.453125 22.08984375 C59.31400056 24.06077327 59.15875703 26.03055465 59 28 C58.67 28 58.34 28 58 28 C57.01 15.13 57.01 15.13 56 2 C53.13054687 2.01160156 50.26109375 2.02320313 47.3046875 2.03515625 C44.47802846 2.04298925 41.65137071 2.04904178 38.82470703 2.05493164 C36.88329514 2.05991292 34.9418869 2.06670036 33.00048828 2.07543945 C21.94836722 2.12388867 11.01327892 2.03989551 0 1 C0 0.67 0 0.34 0 0 Z"/>
<path transform="translate(702,478)" fill="#FCFCFD" d="M0 0 C0.33 0 0.66 0 1 0 C1 8.58 1 17.16 1 26 C1.66 26 2.32 26 3 26 C3 25.34 3 24.68 3 24 C8.91623733 21.92524532 14.07819862 21.80688537 20.30859375 22.0234375 C21.27531509 22.04846344 22.24203644 22.07348938 23.23805237 22.09927368 C26.30491735 22.18099472 29.37109152 22.27776831 32.4375 22.375 C34.52536303 22.43328854 36.61325385 22.49059071 38.70117188 22.546875 C43.80117363 22.68650194 48.90061026 22.83962389 54 23 C53.505 24.485 53.505 24.485 53 26 C53 25.34 53 24.68 53 24 C47.003423 23.96985111 41.00932036 23.98548796 35.01293945 24.04272461 C32.97522106 24.05582735 30.93738366 24.05663257 28.8996582 24.04467773 C25.96187273 24.02961217 23.0273615 24.05942938 20.08984375 24.09765625 C18.73317848 24.07627342 18.73317848 24.07627342 17.34910583 24.05445862 C12.39062364 24.1667959 9.66017328 24.77570051 6.05688477 28.30639648 C3.88343624 30.7756802 1.97912221 33.36117039 0 36 C0 24.12 0 12.24 0 0 Z"/>
<path transform="translate(695.25390625,434.9453125)" fill="#DFE0E1" d="M0 0 C4.16114856 2.43691573 6.63841566 4.61713634 8.74609375 9.0546875 C9.14453125 12.2109375 9.14453125 12.2109375 9.12109375 15.5546875 C9.13269531 17.20984375 9.13269531 17.20984375 9.14453125 18.8984375 C8.70443595 22.38468263 7.85347946 24.26653111 5.74609375 27.0546875 C3.05859375 28.3671875 3.05859375 28.3671875 0.74609375 29.0546875 C1.17921875 28.60480469 1.61234375 28.15492188 2.05859375 27.69140625 C6.29804306 22.79444975 7.64267327 19.10642742 7.2734375 12.61328125 C6.42536141 8.49854169 4.88135016 6.83366477 1.74609375 4.0546875 C-2.72755704 1.349907 -7.16301182 1.38821394 -12.25390625 2.0546875 C-16.10935423 4.05125877 -17.85195717 5.45176388 -20.25390625 9.0546875 C-20.71162688 11.79341705 -20.71162688 11.79341705 -20.87890625 14.7421875 C-20.95367188 15.73605469 -21.0284375 16.72992188 -21.10546875 17.75390625 C-21.15445313 18.51316406 -21.2034375 19.27242188 -21.25390625 20.0546875 C-21.91390625 20.0546875 -22.57390625 20.0546875 -23.25390625 20.0546875 C-23.6133735 13.22480972 -22.85456889 8.26217142 -18.37890625 2.7421875 C-13.07878632 -1.46673127 -6.33083712 -2.65522111 0 0 Z"/>
<path transform="translate(808,493)" fill="#959698" d="M0 0 C0 4.15969376 -1.86948931 6.8166553 -3.80859375 10.4296875 C-5.27112853 13.58492646 -6.43076745 16.38290584 -5.50976562 19.84033203 C-4.92078657 22.33559482 -4.98070761 24.42622756 -5.12109375 26.984375 C-5.16943359 27.91894531 -5.21777344 28.85351562 -5.26757812 29.81640625 C-5.32365234 30.78449219 -5.37972656 31.75257813 -5.4375 32.75 C-5.48970703 33.73355469 -5.54191406 34.71710937 -5.59570312 35.73046875 C-5.72511437 38.15398849 -5.86006905 40.57706864 -6 43 C-6.33 43 -6.66 43 -7 43 C-7.33 37.06 -7.66 31.12 -8 25 C-8.020625 27.825625 -8.04125 30.65125 -8.0625 33.5625 C-8.071604 34.43849854 -8.08070801 35.31449707 -8.09008789 36.21704102 C-8.10652775 40.91300708 -7.96242136 45.393694 -7 50 C-6.34 50.33 -5.68 50.66 -5 51 C-5.66 52.32 -6.32 53.64 -7 55 C-9.60412026 47.72204825 -10.57994905 41.09059699 -10.5625 33.375 C-10.5615332 32.33045654 -10.56056641 31.28591309 -10.55957031 30.2097168 C-10.3046881 18.85960236 -7.58180552 8.75204072 0 0 Z"/>
<path transform="translate(872.4453125,544.12109375)" fill="#727374" d="M0 0 C1.07636719 0.04833984 2.15273438 0.09667969 3.26171875 0.14648438 C4.38964844 0.20255859 5.51757812 0.25863281 6.6796875 0.31640625 C7.81535156 0.36861328 8.95101562 0.42082031 10.12109375 0.47460938 C12.93255381 0.60455081 15.74368215 0.73952539 18.5546875 0.87890625 C19.56779858 4.03448422 19.66739946 4.6289509 18.2265625 7.82421875 C17.59234375 8.87351562 16.958125 9.9228125 16.3046875 11.00390625 C15.68078125 12.05835938 15.056875 13.1128125 14.4140625 14.19921875 C12.5546875 16.87890625 12.5546875 16.87890625 9.5546875 18.87890625 C9.98394531 18.03585937 9.98394531 18.03585937 10.421875 17.17578125 C11.56884681 14.85019702 12.63308544 12.50120424 13.6796875 10.12890625 C14.20949219 8.93007813 14.20949219 8.93007813 14.75 7.70703125 C15.01554688 7.10375 15.28109375 6.50046875 15.5546875 5.87890625 C16.2146875 5.87890625 16.8746875 5.87890625 17.5546875 5.87890625 C17.2246875 4.88890625 16.8946875 3.89890625 16.5546875 2.87890625 C12.9246875 2.87890625 9.2946875 2.87890625 5.5546875 2.87890625 C5.5546875 3.20890625 5.5546875 3.53890625 5.5546875 3.87890625 C4.67425781 3.82089844 3.79382813 3.76289062 2.88671875 3.703125 C-3.48702618 3.20186701 -3.48702618 3.20186701 -9.421875 4.9921875 C-10.92704005 6.47494221 -10.92704005 6.47494221 -12.4453125 8.87890625 C-13.1053125 8.54890625 -13.7653125 8.21890625 -14.4453125 7.87890625 C-13.32342691 6.73002342 -12.19769566 5.58489488 -11.0703125 4.44140625 C-10.44382812 3.80332031 -9.81734375 3.16523437 -9.171875 2.5078125 C-6.09494325 -0.39508465 -4.11440368 -0.19489281 0 0 Z"/>
<path transform="translate(891,524)" fill="#010101" d="M0 0 C0.33 0 0.66 0 1 0 C1 2.97 1 5.94 1 9 C-20.78 9 -42.56 9 -65 9 C-64.67 12.3 -64.34 15.6 -64 19 C-64.33 18.01 -64.66 17.02 -65 16 C-65.66 15.67 -66.32 15.34 -67 15 C-66.67 12.69 -66.34 10.38 -66 8 C-44.22 8 -22.44 8 0 8 C0 5.36 0 2.72 0 0 Z"/>
<path transform="translate(598.73046875,544.0859375)" fill="#7B7D7F" d="M0 0 C0.88494141 0.04382813 1.76988281 0.08765625 2.68164062 0.1328125 C3.59751953 0.184375 4.51339844 0.2359375 5.45703125 0.2890625 C6.38451172 0.33289063 7.31199219 0.37671875 8.26757812 0.421875 C15.13927667 0.78380792 15.13927667 0.78380792 16.26953125 1.9140625 C15.9822307 4.25350986 15.65016346 6.5879768 15.26953125 8.9140625 C14.26953125 5.9140625 14.26953125 5.9140625 15.26953125 2.9140625 C11.63953125 2.9140625 8.00953125 2.9140625 4.26953125 2.9140625 C4.26953125 3.2440625 4.26953125 3.5740625 4.26953125 3.9140625 C3.14933594 3.98882813 2.02914062 4.06359375 0.875 4.140625 C-0.59778906 4.27195651 -2.07043935 4.40485088 -3.54296875 4.5390625 C-4.28095703 4.58417969 -5.01894531 4.62929688 -5.77929688 4.67578125 C-8.24005211 4.86131698 -8.24005211 4.86131698 -11.73046875 5.9140625 C-13.82506899 8.84818972 -13.82506899 8.84818972 -14.73046875 11.9140625 C-15.39046875 11.2540625 -16.05046875 10.5940625 -16.73046875 9.9140625 C-17.72046875 9.5840625 -18.71046875 9.2540625 -19.73046875 8.9140625 C-18.84359375 8.3365625 -17.95671875 7.7590625 -17.04296875 7.1640625 C-14.93349113 5.76932553 -13.05939953 4.35483815 -11.10546875 2.7265625 C-7.46820192 -0.0492464 -4.48618536 -0.22562467 0 0 Z"/>
<path transform="translate(135,387)" fill="#DDE4F3" d="M0 0 C0.66 0.33 1.32 0.66 2 1 C-0.39161932 3.42086773 -2.78903442 5.83591651 -5.1875 8.25 C-5.86103516 8.93191406 -6.53457031 9.61382812 -7.22851562 10.31640625 C-10.67437282 13.77907251 -14.11597219 17.02201123 -18 20 C-21.02571659 22.86646834 -23.7530105 25.88241243 -26.4375 29.0625 C-29.35230033 32.44392407 -32.15738996 34.75066729 -36 37 C-34.48744324 33.14985552 -32.19769213 31.52840773 -29 29 C-27.31267723 27.01739574 -25.64633943 25.0167658 -24 23 C-21.6002307 20.48024224 -19.25050117 18.1941384 -16.5 16.0625 C-14.13641107 14.11253914 -12.36954601 12.04169181 -10.46484375 9.65625 C-7.62250802 6.44251574 -4.26567994 3.76972388 -1 1 C-0.67 0.67 -0.34 0.34 0 0 Z"/>
<path transform="translate(483,562)" fill="#8A8B8C" d="M0 0 C0.99 0.33 1.98 0.66 3 1 C3.96070434 3.88211302 4.10581883 5.69850044 4.0625 8.6875 C4.05347656 9.49574219 4.04445313 10.30398438 4.03515625 11.13671875 C4.02355469 11.75160156 4.01195312 12.36648438 4 13 C6.31 13 8.62 13 11 13 C11 13.33 11 13.66 11 14 C4.84765625 14.09765625 4.84765625 14.09765625 3 14 C1.41727399 12.41727399 1.65264253 10.61965997 1.4375 8.4375 C1.35371094 7.61121094 1.26992188 6.78492188 1.18359375 5.93359375 C1.12300781 5.29550781 1.06242187 4.65742187 1 4 C0.46890625 4.49371094 -0.0621875 4.98742187 -0.609375 5.49609375 C-1.31578125 6.13675781 -2.0221875 6.77742187 -2.75 7.4375 C-3.79414063 8.39462891 -3.79414063 8.39462891 -4.859375 9.37109375 C-6.98792725 10.99081325 -8.39023405 11.58267256 -11 12 C-11 10.68 -11 9.36 -11 8 C-9.948125 7.690625 -9.948125 7.690625 -8.875 7.375 C-5.04274884 5.54218423 -2.89547493 3.09748481 0 0 Z"/>
<path transform="translate(737,524)" fill="#A8A8A9" d="M0 0 C0 3.55955169 -0.89341295 4.27899173 -3 7 C-3 7.66 -3 8.32 -3 9 C-3.66 9 -4.32 9 -5 9 C-5.226875 9.721875 -5.45375 10.44375 -5.6875 11.1875 C-8.7415948 17.73198886 -15.64400709 22.29746156 -21 27 C-21 22.65775021 -18.30812591 20.82335964 -15.4375 17.875 C-11.11682472 13.33097317 -7.05876983 8.7404899 -3.3046875 3.70703125 C-2 2 -2 2 0 0 Z"/>
<path transform="translate(860,478)" fill="#828283" d="M0 0 C3.01311942 0.96337832 6.00679402 1.97664065 9 3 C10.155 3.37125 11.31 3.7425 12.5 4.125 C17.69196297 6.90640874 23.83727924 11.49385751 25.7578125 17.28515625 C25.83773437 17.85105469 25.91765625 18.41695313 26 19 C21 14 21 14 18.8125 11.4375 C15.53758664 8.59924175 12.47912574 7.39591171 8.44921875 5.9140625 C5.4984059 4.8128022 2.78401538 3.46527125 0 2 C0 1.34 0 0.68 0 0 Z"/>
<path transform="translate(511,549)" fill="#737476" d="M0 0 C0.33 0 0.66 0 1 0 C1.19582583 4.31216481 1.38027074 8.6247409 1.5625 12.9375 C1.61857422 14.16919922 1.67464844 15.40089844 1.73242188 16.66992188 C1.78076172 17.83974609 1.82910156 19.00957031 1.87890625 20.21484375 C1.9260376 21.29886475 1.97316895 22.38288574 2.02172852 23.49975586 C2 26 2 26 1 27 C-1.18639453 27.07258946 -3.37500389 27.08373783 -5.5625 27.0625 C-7.35880859 27.04896484 -7.35880859 27.04896484 -9.19140625 27.03515625 C-10.11824219 27.02355469 -11.04507812 27.01195312 -12 27 C-12 26.67 -12 26.34 -12 26 C-10.72125 25.855625 -9.4425 25.71125 -8.125 25.5625 C-5.74307106 25.29357254 -4.15547309 25.07773654 -2 24 C-2 21.36 -2 18.72 -2 16 C-1.67 16 -1.34 16 -1 16 C-0.67 10.72 -0.34 5.44 0 0 Z"/>
<path transform="translate(152,404)" fill="#2B52DA" d="M0 0 C12.54 0 25.08 0 38 0 C38 0.33 38 0.66 38 1 C37.13197754 1.02505615 36.26395508 1.0501123 35.36962891 1.07592773 C32.15286837 1.17099484 28.93627151 1.27023203 25.71972656 1.37231445 C24.3268741 1.41565846 22.93396869 1.45733396 21.54101562 1.49731445 C19.54023349 1.55502932 17.53964141 1.61921869 15.5390625 1.68359375 C14.33459473 1.72025146 13.13012695 1.75690918 11.88916016 1.79467773 C9.06003633 1.81052987 9.06003633 1.81052987 7 3 C4.3276379 3.13415472 1.67749512 3.04318541 -1 3 C-0.67 2.01 -0.34 1.02 0 0 Z"/>
<path transform="translate(612,553)" fill="#676768" d="M0 0 C0.33 0.99 0.66 1.98 1 3 C-0.3125 5.1875 -0.3125 5.1875 -2 7 C-2.66 7 -3.32 7 -4 7 C-4.185625 7.70125 -4.37125 8.4025 -4.5625 9.125 C-6.52067514 13.04135028 -9.40676231 15.5338864 -13 18 C-13.66 18 -14.32 18 -15 18 C-14.44719183 14.32262389 -13.18062192 12.97653445 -10.3125 10.6875 C-6.39037552 7.42259638 -3.22449683 3.95000862 0 0 Z"/>
<path transform="translate(843.8125,574.3125)" fill="#818183" d="M0 0 C0.88042969 0.10828125 1.76085937 0.2165625 2.66796875 0.328125 C5.5172363 0.73453215 8.3568368 1.16606204 11.1875 1.6875 C10.8575 2.3475 10.5275 3.0075 10.1875 3.6875 C4.54651551 5.10700376 -1.16031082 4.79775145 -6.8125 3.6875 C-7.1425 3.0275 -7.4725 2.3675 -7.8125 1.6875 C-4.43690574 -0.56289617 -3.83274357 -0.48866009 0 0 Z"/>
<path transform="translate(203,459)" fill="#495ADF" d="M0 0 C0.33 0 0.66 0 1 0 C1.80270148 8.99025662 -1.11871045 16.61338935 -4 25 C-4.33 25 -4.66 25 -5 25 C-5.28152915 18.80635868 -4.38556756 13.88093233 -2.5 8 C-2.26152344 7.22527344 -2.02304688 6.45054687 -1.77734375 5.65234375 C-1.19486803 3.76512242 -0.59884697 1.88209049 0 0 Z"/>
<path transform="translate(878,545)" fill="#F4F4F4" d="M0 0 C4.29 0 8.58 0 13 0 C14 4 14 4 12.671875 6.9453125 C11.72054687 8.51925781 11.72054687 8.51925781 10.75 10.125 C10.12609375 11.17945313 9.5021875 12.23390625 8.859375 13.3203125 C7 16 7 16 4 18 C4.28617188 17.43796875 4.57234375 16.8759375 4.8671875 16.296875 C6.01415931 13.97129077 7.07839794 11.62229799 8.125 9.25 C8.47820313 8.45078125 8.83140625 7.6515625 9.1953125 6.828125 C9.46085938 6.22484375 9.72640625 5.6215625 10 5 C10.66 5 11.32 5 12 5 C11.67 4.01 11.34 3.02 11 2 C7.37 1.67 3.74 1.34 0 1 C0 0.67 0 0.34 0 0 Z"/>
<path transform="translate(329,443)" fill="#4B4C4E" d="M0 0 C13.365 0.495 13.365 0.495 27 1 C27 1.33 27 1.66 27 2 C19.08 2.33 11.16 2.66 3 3 C2.34 6.3 1.68 9.6 1 13 C0.67 13 0.34 13 0 13 C0 8.71 0 4.42 0 0 Z"/>
<path transform="translate(288,409)" fill="#8D99E9" d="M0 0 C-0.81791016 0.34611328 -0.81791016 0.34611328 -1.65234375 0.69921875 C-6.60252276 2.8400654 -11.29472837 5.22751615 -15.98046875 7.89453125 C-18.25300088 9.13848984 -20.55881902 10.13377449 -23 11 C-18.75116763 5.15785549 -7.77764992 -3.88882496 0 0 Z"/>
<path transform="translate(217,406)" fill="#B1BDEE" d="M0 0 C0.66 0 1.32 0 2 0 C4.82847182 8.98455753 3.73826064 17.75178897 3 27 C2.67 27 2.34 27 2 27 C1.34 18.09 0.68 9.18 0 0 Z"/>
<path transform="translate(273,386)" fill="#9EAFED" d="M0 0 C0 1 0 2 0 3 C-5.75 4.125 -5.75 4.125 -8 3 C-10.17501521 3.80864124 -10.17501521 3.80864124 -12.5 5 C-14.90625 6.1875 -14.90625 6.1875 -17 7 C-17.66 6.67 -18.32 6.34 -19 6 C-4.50928793 -1.50309598 -4.50928793 -1.50309598 0 0 Z"/>
<path transform="translate(480,546)" fill="#9C9C9E" d="M0 0 C0 3 0 3 -1 6 C-3.52891649 8.36032206 -5.32435356 9.00855249 -8.77734375 8.96484375 C-11.53268428 8.71306875 -14.26220322 8.39796345 -17 8 C-17 7.67 -17 7.34 -17 7 C-13.7 7 -10.4 7 -7 7 C-7 6.34 -7 5.68 -7 5 C-5.03277992 3.61876037 -3.03131672 2.28511874 -1 1 C-0.67 0.67 -0.34 0.34 0 0 Z"/>
<path transform="translate(782,505)" fill="#7E7E7F" d="M0 0 C0.66 0.33 1.32 0.66 2 1 C0.63629701 3.99220268 -0.94908083 6.29026529 -3.125 8.75 C-3.93324219 9.67039062 -3.93324219 9.67039062 -4.7578125 10.609375 C-5.16773438 11.06828125 -5.57765625 11.5271875 -6 12 C-6.33 10.68 -6.66 9.36 -7 8 C-5.68 7.67 -4.36 7.34 -3 7 C-2.814375 5.824375 -2.814375 5.824375 -2.625 4.625 C-2 2 -2 2 0 0 Z"/>
<path transform="translate(559,573)" fill="#67686A" d="M0 0 C0 0.99 0 1.98 0 3 C-4.3177458 2.49202991 -8.03302114 1.80317221 -12 0 C-12 -0.33 -12 -0.66 -12 -1 C-7.48281619 -2.36884358 -4.41225737 -1.47075246 0 0 Z"/>
<path transform="translate(737,524)" fill="#848485" d="M0 0 C0 3.55955169 -0.89341295 4.27899173 -3 7 C-3 7.66 -3 8.32 -3 9 C-3.66 9 -4.32 9 -5 9 C-5.28875 9.804375 -5.5775 10.60875 -5.875 11.4375 C-7 14 -7 14 -9 15 C-7.76372623 8.40653991 -4.61935701 4.75522045 0 0 Z"/>
<path transform="translate(830,504)" fill="#7F8081" d="M0 0 C1.60031344 3.20062687 0.03173691 5.72271806 -1 9 C-0.34 9.66 0.32 10.32 1 11 C-0.65 11 -2.3 11 -4 11 C-4.33 8.36 -4.66 5.72 -5 3 C-4.01 3 -3.02 3 -2 3 C-1.34 2.01 -0.68 1.02 0 0 Z"/>
<path transform="translate(218,458)" fill="#8694E8" d="M0 0 C0.33 0 0.66 0 1 0 C1.21021029 5.36036236 1.18389842 9.54311427 -2.5 13.6875 C-2.995 14.120625 -3.49 14.55375 -4 15 C-4.66 15.66 -5.32 16.32 -6 17 C-5.58939856 14.12578994 -5.07676923 12.12683612 -3.5625 9.625 C-1.71552689 6.52208517 -0.88843991 3.48541812 0 0 Z"/>
<path transform="translate(509,565)" fill="#7D7F80" d="M0 0 C0.33 0 0.66 0 1 0 C1.22786458 1.98567708 1.45572917 3.97135417 1.68359375 5.95703125 C1.97170735 8.19396393 1.97170735 8.19396393 3 11 C-1.29 11 -5.58 11 -10 11 C-10 10.67 -10 10.34 -10 10 C-8.72125 9.855625 -7.4425 9.71125 -6.125 9.5625 C-3.74307106 9.29357254 -2.15547309 9.07773654 0 8 C0 5.36 0 2.72 0 0 Z"/>
<path transform="translate(425,555)" fill="#878889" d="M0 0 C0.99 0.33 1.98 0.66 3 1 C3.33 2.98 3.66 4.96 4 7 C4.99 7.33 5.98 7.66 7 8 C7 9.32 7 10.64 7 12 C6.34 12 5.68 12 5 12 C0.57142857 4.71428571 0.57142857 4.71428571 0 0 Z"/>
<path transform="translate(752,506)" fill="#68696B" d="M0 0 C0.66 0.33 1.32 0.66 2 1 C2 2.32 2 3.64 2 5 C-1.96 6.98 -1.96 6.98 -6 9 C-4.25618453 5.51236907 -2.47193291 2.96631949 0 0 Z"/>
<path transform="translate(703,447)" fill="#E0E1E2" d="M0 0 C0.33 0 0.66 0 1 0 C1.46295461 8.83043047 1.46295461 8.83043047 -0.1875 13 C-2.2872453 15.31696033 -4.02633445 16.11593727 -7 17 C-6.57847656 16.52691406 -6.15695312 16.05382812 -5.72265625 15.56640625 C-1.49570295 10.46422497 -0.03065312 6.62107361 0 0 Z"/>
<path transform="translate(538,486)" fill="#98989A" d="M0 0 C1.32 0.66 2.64 1.32 4 2 C3.29875 2.391875 2.5975 2.78375 1.875 3.1875 C-1.36074432 5.22742577 -4.10257782 7.50686929 -7 10 C-5.6062718 5.56541027 -3.39417765 3.12621626 0 0 Z"/>
<path transform="translate(587,506)" fill="#8D8D8E" d="M0 0 C0.99 0 1.98 0 3 0 C3.84454356 3.37817425 4.10844919 5.67465243 3 9 C0.69 9 -1.62 9 -4 9 C-4 8.67 -4 8.34 -4 8 C-2.35 7.67 -0.7 7.34 1 7 C0.67 4.69 0.34 2.38 0 0 Z"/>
<path transform="translate(565,554)" fill="#5E6164" d="M0 0 C4.62 0 9.24 0 14 0 C14.33 0.99 14.66 1.98 15 3 C13.68 3.33 12.36 3.66 11 4 C11 3.34 11 2.68 11 2 C8.02148438 2.09765625 8.02148438 2.09765625 5.04296875 2.1953125 C3 2 3 2 0 0 Z"/>
<path transform="translate(588,546)" fill="#B0B0B2" d="M0 0 C0.66 0.33 1.32 0.66 2 1 C1.38125 1.556875 0.7625 2.11375 0.125 2.6875 C-2.06106379 5.06645178 -2.98785699 6.96357096 -4 10 C-4.66 9.34 -5.32 8.68 -6 8 C-6.99 7.67 -7.98 7.34 -9 7 C-8.071875 6.401875 -7.14375 5.80375 -6.1875 5.1875 C-3.79745282 3.54727155 -1.91529747 2.1281083 0 0 Z"/>
<path transform="translate(888,550)" fill="#868788" d="M0 0 C0.93616694 2.52481387 1.17818983 3.59474972 0.07421875 6.10546875 C-0.38339844 6.79253906 -0.84101562 7.47960937 -1.3125 8.1875 C-1.76238281 8.88230469 -2.21226562 9.57710937 -2.67578125 10.29296875 C-4 12 -4 12 -6 13 C-5.71382812 12.43796875 -5.42765625 11.8759375 -5.1328125 11.296875 C-3.98584069 8.97129077 -2.92160206 6.62229799 -1.875 4.25 C-1.52179687 3.45078125 -1.16859375 2.6515625 -0.8046875 1.828125 C-0.53914062 1.22484375 -0.27359375 0.6215625 0 0 Z"/>
<path transform="translate(550,481)" fill="#808082" d="M0 0 C0 0.99 0 1.98 0 3 C-3.33333333 3.66666667 -6.66666667 4.33333333 -10 5 C-10 4.34 -10 3.68 -10 3 C-6.27034861 0.96564469 -4.33094958 0 0 0 Z"/>
<path transform="translate(201,471)" fill="#7687E6" d="M0 0 C1.18771723 3.42943519 0.80226223 5.37784675 -0.4375 8.75 C-0.86869141 9.94882812 -0.86869141 9.94882812 -1.30859375 11.171875 C-1.65083984 12.07679688 -1.65083984 12.07679688 -2 13 C-2.33 13 -2.66 13 -3 13 C-3.125 5.375 -3.125 5.375 -2 2 C-1.34 2 -0.68 2 0 2 C0 1.34 0 0.68 0 0 Z"/>
<path transform="translate(135,387)" fill="#F4F6F9" d="M0 0 C0.66 0.33 1.32 0.66 2 1 C-1.3 4.3 -4.6 7.6 -8 11 C-8.66 10.34 -9.32 9.68 -10 9 C-6.7 6.03 -3.4 3.06 0 0 Z"/>
<path transform="translate(581,497)" fill="#58595A" d="M0 0 C2.46800047 1.15173355 4.04783565 2.04783565 6 4 C5.625 6.125 5.625 6.125 5 8 C2.5 5.6875 2.5 5.6875 0 3 C0 2.01 0 1.02 0 0 Z"/>
<path transform="translate(260,420)" fill="#7A87E9" d="M0 0 C0.99 0.33 1.98 0.66 3 1 C0.63404067 3.61500768 -1.86049226 5.38999603 -5 7 C-5.66 6.67 -6.32 6.34 -7 6 C-6.34 5.01 -5.68 4.02 -5 3 C-3.68 3 -2.36 3 -1 3 C-0.67 2.01 -0.34 1.02 0 0 Z"/>
<path transform="translate(699,565)" fill="#626363" d="M0 0 C0.33 0 0.66 0 1 0 C1.33 3.63 1.66 7.26 2 11 C-0.64 11 -3.28 11 -6 11 C-6 10.67 -6 10.34 -6 10 C-4.35 9.67 -2.7 9.34 -1 9 C-0.67 6.03 -0.34 3.06 0 0 Z"/>
<path transform="translate(596.48046875,543.92578125)" fill="#525354" d="M0 0 C0.89332031 0.12761719 1.78664063 0.25523437 2.70703125 0.38671875 C3.60808594 0.50660156 4.50914062 0.62648438 5.4375 0.75 C6.12457031 0.85699219 6.81164062 0.96398437 7.51953125 1.07421875 C7.51953125 1.40421875 7.51953125 1.73421875 7.51953125 2.07421875 C1.08453125 2.56921875 1.08453125 2.56921875 -5.48046875 3.07421875 C-2.48046875 0.07421875 -2.48046875 0.07421875 0 0 Z"/>
<path transform="translate(884,497)" fill="#424344" d="M0 0 C0.99 0 1.98 0 3 0 C3.66 2.64 4.32 5.28 5 8 C4.34 8 3.68 8 3 8 C0 2.25 0 2.25 0 0 Z"/>
<path transform="translate(564,494)" fill="#9B9C9F" d="M0 0 C3.63 0.33 7.26 0.66 11 1 C11 1.33 11 1.66 11 2 C10.00419922 2.07347656 10.00419922 2.07347656 8.98828125 2.1484375 C2.2887764 2.71125812 2.2887764 2.71125812 -4 5 C-3.67 4.34 -3.34 3.68 -3 3 C-2.34 3 -1.68 3 -1 3 C-0.67 2.01 -0.34 1.02 0 0 Z"/>
<path transform="translate(612,553)" fill="#7D7E7F" d="M0 0 C0.33 0.99 0.66 1.98 1 3 C-0.3125 5.1875 -0.3125 5.1875 -2 7 C-2.66 7 -3.32 7 -4 7 C-4.33 7.66 -4.66 8.32 -5 9 C-4.5206753 4.68607774 -3.2542015 2.83430453 0 0 Z"/>
<path transform="translate(194,491)" fill="#5464E0" d="M0 0 C0.66 0.33 1.32 0.66 2 1 C0.70700306 3.88437779 -0.65941363 5.87219421 -3 8 C-3.66 7.67 -4.32 7.34 -5 7 C-3.35 4.69 -1.7 2.38 0 0 Z"/>
<path transform="translate(472,570)" fill="#767778" d="M0 0 C2.31 0 4.62 0 7 0 C4.82575883 2.50037734 3.26954202 3.43628586 0 4 C0 2.68 0 1.36 0 0 Z"/>
<path transform="translate(806,551)" fill="#818182" d="M0 0 C1.4606285 2.64738916 2 3.89448334 2 7 C2.33 7.66 2.66 8.32 3 9 C2.01 8.67 1.02 8.34 0 8 C-1.1875 4.9375 -1.1875 4.9375 -2 2 C-1.34 1.34 -0.68 0.68 0 0 Z"/>
<path transform="translate(112,530)" fill="#6276E5" d="M0 0 C0.33 0 0.66 0 1 0 C1 2.31 1 4.62 1 7 C-0.65 7.33 -2.3 7.66 -4 8 C-3.34 7.67 -2.68 7.34 -2 7 C-1.26924352 4.6859378 -0.59861742 2.35171131 0 0 Z"/>
<path transform="translate(208,483)" fill="#8392E9" d="M0 0 C0.33 0 0.66 0 1 0 C0.67 2.31 0.34 4.62 0 7 C-0.99 7.33 -1.98 7.66 -3 8 C-2.45276317 4.62537285 -1.9451 2.91765 0 0 Z"/>
<path transform="translate(555,547)" fill="#929394" d="M0 0 C2.31 1.65 4.62 3.3 7 5 C6.01 5.495 6.01 5.495 5 6 C2.375 5.0625 2.375 5.0625 0 4 C0 2.68 0 1.36 0 0 Z"/>
</svg>